<svg xmlns="http://www.w3.org/2000/svg" xmlns:svg="http://www.w3.org/2000/svg" xmlns:xlink="http://www.w3.org/1999/xlink" style="isolation:isolate" id="svg77" width="24" height="24" version="1.1" viewBox="0 0 24 24"><metadata id="metadata81"/><defs id="defs43"><linearGradient id="linearGradient2905"><stop style="stop-color:#b2b2b2;stop-opacity:.58823532" id="stop2897" offset="0"/><stop style="stop-color:#fff;stop-opacity:.23529412" id="stop2899" offset=".075"/><stop style="stop-color:#fff;stop-opacity:.15686275" id="stop2901" offset=".978"/><stop style="stop-color:#fff;stop-opacity:.39215687" id="stop2903" offset="1"/></linearGradient><linearGradient id="linearGradient1910"><stop id="stop1902" offset="0" style="stop-color:#fff;stop-opacity:.76878613"/><stop id="stop1908" offset="1" style="stop-color:#cacaca;stop-opacity:.76878613"/></linearGradient><linearGradient id="linearGradient1840"><stop style="stop-color:#fff;stop-opacity:.76878613" id="stop1836" offset="0"/><stop id="stop1846" offset=".14" style="stop-color:#c7c7c7;stop-opacity:.30057803"/><stop style="stop-color:#c7c7c7;stop-opacity:.3019608" id="stop1848" offset=".839"/><stop style="stop-color:#b1b1b1;stop-opacity:.89411765" id="stop1838" offset="1"/></linearGradient><linearGradient id="linearGradient1460"><stop style="stop-color:#c6f27b;stop-opacity:1" id="stop1456" offset="0"/><stop style="stop-color:#63ae21;stop-opacity:1" id="stop1458" offset="1"/></linearGradient><linearGradient id="linearGradient1441"><stop style="stop-color:#f2d666;stop-opacity:1" id="stop1437" offset="0"/><stop style="stop-color:#ecba3d;stop-opacity:1" id="stop1439" offset="1"/></linearGradient><linearGradient id="_lgradient_5" x1="64" x2="64" y1="15.5" y2="118.5" gradientUnits="userSpaceOnUse"><stop style="stop-color:#63ae21;stop-opacity:1" id="stop30" offset="0%"/><stop style="stop-color:#3a9104" id="stop36" offset="100%"/><stop style="stop-color:#775f5b" id="stop38" offset="100%"/><stop style="stop-color:#93d049;stop-opacity:1" id="stop40" offset="100%"/></linearGradient><linearGradient id="_lgradient_3" x1="10.146" x2="10.146" y1="195.562" y2="203.992" gradientTransform="scale(1.6858826,0.59316113)" gradientUnits="userSpaceOnUse"><stop id="stop960" offset="0%" style="stop-color:#000"/><stop id="stop962" offset="100%" style="stop-color:#000"/></linearGradient><linearGradient id="linearGradient1046" x1=".5" x2=".5" y1="-.014" y2="1.014"><stop id="stop999" offset="0%" style="stop-color:#fff"/><stop id="stop1001" offset="6.316%" style="stop-color:rgba(255,255,255,.23529412)"/><stop id="stop1003" offset="95.056%" style="stop-color:rgba(255,255,255,.15686275)"/><stop id="stop1005" offset="100%" style="stop-color:rgba(255,255,255,.39215687)"/></linearGradient><linearGradient id="linearGradient1443" x1="54.782" x2="60.551" y1="64.134" y2="115.209" gradientTransform="matrix(0.23961294,0,0,0.23961294,-3.2981212,99.72997)" gradientUnits="userSpaceOnUse" xlink:href="#linearGradient1441"/><linearGradient id="linearGradient1462" x1="61.313" x2="62.414" y1="-1.354" y2="103.595" gradientTransform="matrix(0.23961294,0,0,0.23961294,-3.2981212,99.72997)" gradientUnits="userSpaceOnUse" xlink:href="#linearGradient1460"/><linearGradient id="linearGradient1791" x1="61.313" x2="62.414" y1="-1.354" y2="103.595" gradientUnits="userSpaceOnUse" xlink:href="#linearGradient1460"/><mask id="mask1787" maskUnits="userSpaceOnUse"><path id="path1789" d="m 32.16081,22.561267 c 20.751048,0 41.502096,0 62.253144,0 V 102.45875 H 32.16081 V 22.561671 Z" style="isolation:isolate;fill:url(#linearGradient1791);fill-opacity:1;stroke-width:.20156889"/></mask><linearGradient id="linearGradient1862" x1="110.047" x2="82.774" y1="61.27" y2="118.627" gradientTransform="matrix(0.23961294,0,0,0.23961294,-3.2981212,99.72997)" gradientUnits="userSpaceOnUse" xlink:href="#linearGradient1441"/><linearGradient id="linearGradient1878" x1="63.874" x2="64.698" y1="34.743" y2="72.628" gradientTransform="matrix(0.23961294,0,0,0.23961294,-3.2981212,101.47081)" gradientUnits="userSpaceOnUse" xlink:href="#_lgradient_5"/><linearGradient id="linearGradient1890" x1="25" x2="101" y1="64" y2="110" gradientUnits="userSpaceOnUse" xlink:href="#linearGradient1910"/><linearGradient id="linearGradient1924" x1="54.782" x2="60.551" y1="64.134" y2="115.209" gradientUnits="userSpaceOnUse" xlink:href="#linearGradient1441"/><mask id="mask1920" maskUnits="userSpaceOnUse"><path id="path1922" d="m 24.111722,63.68582 v 46.25 h 78.351558 l -39.175777,-23.125 z" style="isolation:isolate;fill:url(#linearGradient1924);fill-opacity:1;stroke-width:.20156889"/></mask><linearGradient id="linearGradient1944" x1="102.465" x2="63.288" y1="63.688" y2="86.811" gradientUnits="userSpaceOnUse" xlink:href="#linearGradient1910"/><linearGradient id="linearGradient1963" x1="110.047" x2="82.774" y1="61.27" y2="118.627" gradientUnits="userSpaceOnUse" xlink:href="#linearGradient1441"/><mask id="mask1959" maskUnits="userSpaceOnUse"><path style="isolation:isolate;fill:url(#linearGradient1963);fill-opacity:1;stroke-width:.20156889" id="path1961" d="M 102.4642,63.686707 63.287682,86.811295 102.4642,109.93669 Z"/></mask><mask id="mask1994" maskUnits="userSpaceOnUse"><path id="path1996" d="m 63.287109,40.5625 -39.175781,23.125 v 46.25 h 78.351562 v -46.25 z" style="isolation:isolate;fill:#f29950;fill-opacity:1;stroke-width:.20156889"/></mask><linearGradient id="linearGradient4236"><stop id="stop2020" offset="0" style="stop-color:#575d5e;stop-opacity:1"/><stop id="stop2022" offset="1" style="stop-color:#292d2e;stop-opacity:1"/></linearGradient><linearGradient id="linearGradient3895"><stop id="stop2025" offset="0" style="stop-color:#fff;stop-opacity:1"/><stop id="stop2027" offset=".03" style="stop-color:#fff;stop-opacity:.23529412"/><stop id="stop2029" offset=".978" style="stop-color:#fff;stop-opacity:.15686275"/><stop id="stop2031" offset="1" style="stop-color:#fff;stop-opacity:.39215687"/></linearGradient><linearGradient id="linearGradient3688-166-749"><stop id="stop2034" offset="0" style="stop-color:#181818;stop-opacity:1"/><stop id="stop2036" offset="1" style="stop-color:#181818;stop-opacity:0"/></linearGradient><linearGradient id="linearGradient3702-501-757"><stop id="stop2044" offset="0" style="stop-color:#181818;stop-opacity:0"/><stop id="stop2046" offset=".5" style="stop-color:#181818;stop-opacity:1"/><stop id="stop2048" offset="1" style="stop-color:#181818;stop-opacity:0"/></linearGradient><linearGradient id="linearGradient3024" x1="24" x2="24" y1="6.032" y2="41.934" gradientTransform="translate(143.99999,124.62501)" gradientUnits="userSpaceOnUse" xlink:href="#linearGradient3895"/><radialGradient id="radialGradient3038" cx="4.993" cy="43.5" r="2.5" fx="4.993" fy="43.5" gradientTransform="matrix(2.003784,0,0,1.4,27.98813,-17.4)" gradientUnits="userSpaceOnUse" xlink:href="#linearGradient3688-166-749"/><radialGradient id="radialGradient3040" cx="4.993" cy="43.5" r="2.5" fx="4.993" fy="43.5" gradientTransform="matrix(2.003784,0,0,1.4,-20.01187,-104.4)" gradientUnits="userSpaceOnUse" xlink:href="#linearGradient3688-166-749"/><linearGradient id="linearGradient3042" x1="25.058" x2="25.058" y1="47.028" y2="39.999" gradientUnits="userSpaceOnUse" xlink:href="#linearGradient3702-501-757"/><linearGradient id="linearGradient4232" x1="25" x2="25" y1="6" y2="44" gradientTransform="translate(143.99999,123.625)" gradientUnits="userSpaceOnUse" xlink:href="#linearGradient4236"/><linearGradient id="linearGradient2147" x1="65.522" x2="64.215" y1="34.596" y2="109.938" gradientTransform="matrix(0.23961294,0,0,0.23961294,-3.2981217,99.72997)" gradientUnits="userSpaceOnUse" xlink:href="#linearGradient1840"/><mask id="mask2891" maskUnits="userSpaceOnUse"><path style="isolation:isolate;fill:#fff;fill-opacity:1;stroke-width:.04829852" id="path2893" d="m 4.4082031,108.01953 v 5.83203 l -1.9296875,1.13867 v 11.08204 H 21.253906 v -11.08204 l -1.929687,-1.13867 v -5.83203 z"/></mask><linearGradient id="linearGradient2895" x1="64.841" x2="65.925" y1="34.594" y2="109.934" gradientTransform="matrix(0.23961294,0,0,0.23961294,-3.298145,99.730351)" gradientUnits="userSpaceOnUse" xlink:href="#linearGradient2905"/></defs><defs id="defs65"><linearGradient id="_lgradient_6" x1=".5" x2=".5" y1="-.014" y2="1.014"><stop style="stop-color:#fff" id="stop47" offset="0%"/><stop style="stop-color:rgba(255,255,255,.23529412)" id="stop49" offset="6.316%"/><stop style="stop-color:rgba(255,255,255,.15686275)" id="stop51" offset="95.056%"/><stop style="stop-color:rgba(255,255,255,.39215687)" id="stop53" offset="100%"/></linearGradient><linearGradient id="_lgradient_7" x1=".5" x2=".5" y1="-.014" y2="1.014"><stop style="stop-color:#fff" id="stop56" offset="0%"/><stop style="stop-color:rgba(255,255,255,.23529412)" id="stop58" offset="6.316%"/><stop style="stop-color:rgba(255,255,255,.15686275)" id="stop60" offset="95.056%"/><stop style="stop-color:rgba(255,255,255,.39215687)" id="stop62" offset="100%"/></linearGradient></defs><g id="layer1" transform="translate(0,-104)" style="display:none"><rect style="opacity:1;isolation:isolate;fill:#72b91b;fill-opacity:.5606936;fill-rule:evenodd;stroke:none;stroke-width:.375;stroke-linecap:round;stroke-linejoin:round;stroke-miterlimit:4;stroke-dasharray:none;stroke-dashoffset:0;stroke-opacity:.71764706;paint-order:markers fill stroke" id="rect2151" width="24" height="24" x="0" y="104"/></g><g id="layer2" transform="translate(0,-104)"><path style="isolation:isolate;fill:#f29950;fill-opacity:1;stroke-width:.04829852" id="path1276" d="m 11.866289,109.44927 -9.3870241,5.54106 v 11.0821 H 21.253315 v -11.0821 z"/><path style="fill:none;stroke:#000;stroke-width:.23961294px;stroke-linecap:butt;stroke-linejoin:miter;stroke-opacity:1" id="path1793" d="M 21.253315,114.99033 Z"/><path style="fill:none;stroke:#000;stroke-width:.23961294px;stroke-linecap:butt;stroke-linejoin:miter;stroke-opacity:1" id="path1795" d="M 21.253627,114.99013 Z"/><path id="path1810" d="m 2.4792649,114.99033 2.1080332,-1.24435" style="isolation:isolate;fill:none;fill-opacity:1;stroke:#de6d11;stroke-width:.23961294;stroke-linecap:round;stroke-linejoin:round;stroke-miterlimit:4;stroke-dasharray:none;stroke-opacity:.66473993"/><path style="isolation:isolate;fill:none;fill-opacity:1;stroke:#de6d11;stroke-width:.23961294;stroke-linecap:round;stroke-linejoin:round;stroke-miterlimit:4;stroke-dasharray:none;stroke-opacity:.66473993" id="path1753" d="m 21.253387,114.99033 -2.108034,-1.24435"/><g style="opacity:.6;isolation:isolate" id="g2064" transform="matrix(0.56827843,0,0,0.31550511,-1.7723278,112.13594)"><rect style="fill:url(#radialGradient3038);fill-opacity:1;stroke:none" id="rect2058" width="5" height="7" x="38" y="40"/><rect style="fill:url(#radialGradient3040);fill-opacity:1;stroke:none" id="rect2060" width="5" height="7" x="-10" y="-47" transform="scale(-1)"/><rect style="fill:url(#linearGradient3042);fill-opacity:1;stroke:none" id="rect2062" width="28" height="7" x="10" y="40"/></g></g><g id="layer4" transform="translate(0,-104)"><path style="isolation:isolate;fill:url(#linearGradient1462);fill-opacity:1;stroke-width:.04829852" id="path1282" d="M 4.4080254,108.01945 H 19.324686 v 16.26098 H 4.4080254 v -16.26088 z"/><path style="isolation:isolate;fill:url(#linearGradient1443);fill-opacity:1;stroke-width:.04829852" id="path1290" d="m 2.4793595,114.98992 v 11.0821 H 21.253408 l -9.387024,-5.54104 z"/><path id="path1292" d="m 21.253627,114.99013 -9.387201,5.54095 9.387201,5.54116 z" style="isolation:isolate;fill:url(#linearGradient1862);fill-opacity:1;stroke-width:.04829852"/><path style="isolation:isolate;fill:none;fill-opacity:1;stroke:#578427;stroke-width:.23961294;stroke-linecap:round;stroke-linejoin:round;stroke-miterlimit:4;stroke-dasharray:none;stroke-opacity:.64739883" id="path1766" d="m 19.324686,116.12804 v -8.10859 H 4.4080254 v 8.10895"/><path style="isolation:isolate;fill:none;stroke:#bc8d12;stroke-width:.23961294px;stroke-linecap:round;stroke-linejoin:miter;stroke-opacity:.71676301" id="path1797" d="m 21.253627,114.99013 -1.72e-4,11.08189 c 0,0 -18.774046,0 -18.774046,0 l -1.202e-4,-11.08169"/><path style="isolation:isolate;fill:none;fill-opacity:1;stroke:url(#linearGradient1890);stroke-width:2.50403839;stroke-linecap:round;stroke-linejoin:round;stroke-miterlimit:4;stroke-dasharray:none" id="path1882" d="M 102.46328,109.93582 63.287503,86.81082 24.111722,63.68582" mask="url(#mask1920)" transform="matrix(0.23961294,0,0,0.23961294,-3.2981217,99.72997)"/><path id="path1936" d="M 102.4642,63.686707 63.287682,86.811295" mask="url(#mask1959)" transform="matrix(0.23961294,0,0,0.23961294,-3.2981217,99.72997)" style="isolation:isolate;fill:none;stroke:url(#linearGradient1944);stroke-width:2.50403839;stroke-linecap:round;stroke-linejoin:round;stroke-miterlimit:4;stroke-dasharray:none;stroke-opacity:.71764706"/><path style="isolation:isolate;fill:none;fill-opacity:1;stroke:url(#linearGradient2895);stroke-width:.5;stroke-miterlimit:4;stroke-dasharray:none" id="path1821" d="m 2.4792412,114.99023 v 11.0821 4.8e-4 H 21.253289 m 4.8e-4,0 v -11.0821 h -4.8e-4 l -1.928603,-1.13863 v -5.83263 H 4.4078446 v 4.8e-4 5.83216 l -1.9281354,1.13817" mask="url(#mask2891)"/><path id="path2145" d="m 4.4078678,108.01953 v 4.7e-4 5.8317 l -1.9281353,1.13816 h -4.793e-4 v 11.0821 4.8e-4 h 18.7740478 4.79e-4 v -11.0821 h -4.79e-4 l -1.928602,-1.13863 v -5.83216 z" style="isolation:isolate;fill:none;fill-opacity:1;stroke:url(#linearGradient2147);stroke-width:.47922587;stroke-miterlimit:4;stroke-dasharray:none;stroke-opacity:.64739883"/></g><g id="layer3" transform="translate(0,-104)"><path style="fill:none;stroke:#bc8d12;stroke-width:.23961294px;stroke-linecap:round;stroke-linejoin:round;stroke-opacity:.71764706" id="path1817" d="M 21.253408,126.07202 2.4793595,114.98992"/><path style="fill:none;stroke:#bc8d12;stroke-width:.23961294px;stroke-linecap:round;stroke-linejoin:round;stroke-opacity:.71764706" id="path1819" d="m 21.253627,114.99013 -9.387201,5.54095"/><path style="opacity:1;isolation:isolate;fill:url(#linearGradient1878);fill-opacity:1;fill-rule:evenodd;stroke:none;stroke-width:.1720898;stroke-linecap:round;stroke-linejoin:round;stroke-miterlimit:4;stroke-dasharray:none;stroke-dashoffset:0;stroke-opacity:1;paint-order:markers fill stroke" id="rect1537" d="m 11.454532,109.76061 v 0.76484 c -0.613561,0.0863 -1.063061,0.32294 -1.348485,0.71004 -0.2854256,0.38792 -0.4290477,0.82463 -0.4290477,1.30915 0,0.36915 0.08035,0.69379 0.2401524,0.97239 0.1598033,0.27773 0.3683083,0.49403 0.6246663,0.64785 0.256357,0.15546 0.612712,0.31098 1.068167,0.46903 0.506725,0.17944 0.834135,0.32731 0.981112,0.44435 0.146952,0.11626 0.220324,0.28799 0.220324,0.51442 0,0.21876 -0.07334,0.40511 -0.220324,0.5598 -0.146977,0.15469 -0.377808,0.23158 -0.689702,0.23158 -0.667377,0 -1.060467,-0.36073 -1.179253,-1.08279 l -1.2817649,0.33426 c 0.2588998,1.14848 0.9297709,1.77907 2.0141549,1.89014 v 0.9853 h 0.828854 v -0.99035 c 0.650314,-0.0683 1.147626,-0.29571 1.492005,-0.68197 0.344381,-0.38541 0.516943,-0.86734 0.516943,-1.44579 0,-0.37684 -0.08359,-0.70584 -0.250237,-0.98785 -0.167487,-0.28112 -0.390597,-0.5025 -0.670881,-0.66231 -0.279436,-0.15979 -0.665704,-0.32991 -1.157909,-0.50936 -0.44777,-0.16492 -0.740875,-0.30249 -0.87675,-0.41359 -0.136722,-0.11196 -0.205028,-0.27164 -0.205028,-0.48015 0,-0.20423 0.07089,-0.37858 0.212758,-0.52213 0.14099,-0.14358 0.329004,-0.21529 0.563158,-0.21529 0.466529,0 0.810018,0.3212 1.033041,0.96379 l 1.141777,-0.4682 c -0.272574,-0.93739 -0.872573,-1.46124 -1.798877,-1.57234 v -0.76482 z"/><path style="opacity:1;isolation:isolate;fill:#1e6600;fill-opacity:1;fill-rule:evenodd;stroke:none;stroke-width:.1720898;stroke-linecap:round;stroke-linejoin:round;stroke-miterlimit:4;stroke-dasharray:none;stroke-dashoffset:0;stroke-opacity:1;paint-order:markers fill stroke" id="path1866" d="M 11.454455,109.7604 V 110 h 0.828818 v -0.2396 z m 0,0.76517 c -0.613562,0.0863 -1.062866,0.32284 -1.348291,0.70994 -0.2854261,0.38795 -0.4291501,0.82447 -0.4291501,1.30899 0,0.0327 0.00388,0.0631 0.00513,0.095 0.026033,-0.42699 0.1673604,-0.81556 0.4240021,-1.16438 0.285425,-0.38709 0.734729,-0.62365 1.348291,-0.70994 z m 0.828818,0 v 0.23961 c 0.853317,0.10239 1.426403,0.55929 1.725025,1.36281 l 0.07395,-0.0305 c -0.272573,-0.93741 -0.872666,-1.46088 -1.798969,-1.572 z m -1.141438,1.93609 c -0.0056,0.0383 -0.0103,0.0768 -0.0103,0.11751 0,0.20849 0.06826,0.36822 0.204983,0.48017 0.135876,0.11112 0.428782,0.24879 0.876552,0.41369 0.492207,0.17947 0.878849,0.34938 1.158285,0.50919 0.280284,0.15979 0.503149,0.38108 0.670636,0.66221 0.152323,0.25777 0.231635,0.55691 0.24476,0.89387 0.0026,-0.0481 0.0056,-0.096 0.0056,-0.14556 0,-0.37683 -0.08374,-0.70545 -0.250375,-0.98746 -0.167487,-0.28114 -0.390352,-0.50287 -0.670636,-0.66267 -0.279436,-0.15981 -0.666079,-0.32972 -1.158286,-0.50919 -0.44777,-0.16492 -0.740677,-0.3026 -0.876552,-0.4137 -0.108406,-0.0888 -0.172247,-0.20869 -0.194686,-0.35802 z m -0.419791,2.83979 -1.2818355,0.33415 c 0.017447,0.0774 0.036848,0.15196 0.058033,0.22463 l 1.2238045,-0.31963 c 0.118786,0.72206 0.511969,1.08293 1.179344,1.08293 0.311895,0 0.542847,-0.077 0.689824,-0.23166 0.146978,-0.15469 0.220425,-0.34096 0.220425,-0.55972 0,-0.0426 -0.0055,-0.0815 -0.01077,-0.12029 -0.02246,0.1676 -0.09041,0.31488 -0.20966,0.4404 -0.146978,0.15469 -0.37793,0.23164 -0.689824,0.23164 -0.667376,0 -1.060559,-0.3604 -1.179345,-1.08247 z"/></g></svg>