<svg xmlns="http://www.w3.org/2000/svg" xmlns:svg="http://www.w3.org/2000/svg" xmlns:xlink="http://www.w3.org/1999/xlink" style="isolation:isolate" id="svg77" width="32" height="32" version="1.1" viewBox="0 0 32 32"><metadata id="metadata81"/><defs id="defs43"><linearGradient id="linearGradient1910"><stop id="stop1902" offset="0" style="stop-color:#fff;stop-opacity:.76878613"/><stop id="stop1908" offset="1" style="stop-color:#cacaca;stop-opacity:.76878613"/></linearGradient><linearGradient id="linearGradient1840"><stop style="stop-color:#fff;stop-opacity:.76878613" id="stop1836" offset="0"/><stop id="stop1846" offset=".14" style="stop-color:#c7c7c7;stop-opacity:.30057803"/><stop style="stop-color:#c7c7c7;stop-opacity:.3019608" id="stop1848" offset=".839"/><stop style="stop-color:#b1b1b1;stop-opacity:.89411765" id="stop1838" offset="1"/></linearGradient><linearGradient id="linearGradient1460"><stop style="stop-color:#c6f27b;stop-opacity:1" id="stop1456" offset="0"/><stop style="stop-color:#63ae21;stop-opacity:1" id="stop1458" offset="1"/></linearGradient><linearGradient id="linearGradient1441"><stop style="stop-color:#f2d666;stop-opacity:1" id="stop1437" offset="0"/><stop style="stop-color:#ecba3d;stop-opacity:1" id="stop1439" offset="1"/></linearGradient><linearGradient id="_lgradient_5" x1="64" x2="64" y1="15.5" y2="118.5" gradientUnits="userSpaceOnUse"><stop style="stop-color:#63ae21;stop-opacity:1" id="stop30" offset="0%"/><stop style="stop-color:#3a9104" id="stop36" offset="100%"/><stop style="stop-color:#775f5b" id="stop38" offset="100%"/><stop style="stop-color:#93d049;stop-opacity:1" id="stop40" offset="100%"/></linearGradient><linearGradient id="_lgradient_3" x1="10.146" x2="10.146" y1="195.562" y2="203.992" gradientTransform="scale(1.6858826,0.59316113)" gradientUnits="userSpaceOnUse"><stop id="stop960" offset="0%" style="stop-color:#000"/><stop id="stop962" offset="100%" style="stop-color:#000"/></linearGradient><linearGradient id="linearGradient1046" x1=".5" x2=".5" y1="-.014" y2="1.014"><stop id="stop999" offset="0%" style="stop-color:#fff"/><stop id="stop1001" offset="6.316%" style="stop-color:rgba(255,255,255,.23529412)"/><stop id="stop1003" offset="95.056%" style="stop-color:rgba(255,255,255,.15686275)"/><stop id="stop1005" offset="100%" style="stop-color:rgba(255,255,255,.39215687)"/></linearGradient><linearGradient id="linearGradient1443" x1="54.782" x2="60.551" y1="64.134" y2="115.209" gradientTransform="matrix(0.31806307,0,0,0.31806307,-4.3075732,91.098566)" gradientUnits="userSpaceOnUse" xlink:href="#linearGradient1441"/><linearGradient id="linearGradient1462" x1="61.313" x2="62.414" y1="-1.354" y2="103.595" gradientTransform="matrix(0.31806307,0,0,0.31806307,-4.3075732,91.098566)" gradientUnits="userSpaceOnUse" xlink:href="#linearGradient1460"/><linearGradient id="linearGradient1791" x1="61.313" x2="62.414" y1="-1.354" y2="103.595" gradientUnits="userSpaceOnUse" xlink:href="#linearGradient1460"/><mask id="mask1787" maskUnits="userSpaceOnUse"><path id="path1789" d="m 32.16081,22.561267 c 20.751048,0 41.502096,0 62.253144,0 V 102.45875 H 32.16081 V 22.561671 Z" style="isolation:isolate;fill:url(#linearGradient1791);fill-opacity:1;stroke-width:.20156889"/></mask><linearGradient id="linearGradient1862" x1="110.047" x2="82.774" y1="61.27" y2="118.627" gradientTransform="matrix(0.31806307,0,0,0.31806307,-4.3075732,91.098566)" gradientUnits="userSpaceOnUse" xlink:href="#linearGradient1441"/><linearGradient id="linearGradient1878" x1="63.874" x2="64.698" y1="34.743" y2="72.628" gradientTransform="matrix(0.31806307,0,0,0.31806307,-4.3075732,93.409367)" gradientUnits="userSpaceOnUse" xlink:href="#_lgradient_5"/><linearGradient id="linearGradient1890" x1="25" x2="101" y1="64" y2="110" gradientUnits="userSpaceOnUse" xlink:href="#linearGradient1910"/><linearGradient id="linearGradient1924" x1="54.782" x2="60.551" y1="64.134" y2="115.209" gradientUnits="userSpaceOnUse" xlink:href="#linearGradient1441"/><mask id="mask1920" maskUnits="userSpaceOnUse"><path id="path1922" d="m 24.111722,63.68582 v 46.25 h 78.351558 l -39.175777,-23.125 z" style="isolation:isolate;fill:url(#linearGradient1924);fill-opacity:1;stroke-width:.20156889"/></mask><linearGradient id="linearGradient1944" x1="102.465" x2="63.288" y1="63.688" y2="86.811" gradientUnits="userSpaceOnUse" xlink:href="#linearGradient1910"/><linearGradient id="linearGradient1963" x1="110.047" x2="82.774" y1="61.27" y2="118.627" gradientUnits="userSpaceOnUse" xlink:href="#linearGradient1441"/><mask id="mask1959" maskUnits="userSpaceOnUse"><path style="isolation:isolate;fill:url(#linearGradient1963);fill-opacity:1;stroke-width:.20156889" id="path1961" d="M 102.4642,63.686707 63.287682,86.811295 102.4642,109.93669 Z"/></mask><mask id="mask1994" maskUnits="userSpaceOnUse"><path id="path1996" d="m 63.287109,40.5625 -39.175781,23.125 v 46.25 h 78.351562 v -46.25 z" style="isolation:isolate;fill:#f29950;fill-opacity:1;stroke-width:.20156889"/></mask><linearGradient id="linearGradient4236"><stop id="stop2020" offset="0" style="stop-color:#575d5e;stop-opacity:1"/><stop id="stop2022" offset="1" style="stop-color:#292d2e;stop-opacity:1"/></linearGradient><linearGradient id="linearGradient3895"><stop id="stop2025" offset="0" style="stop-color:#fff;stop-opacity:1"/><stop id="stop2027" offset=".03" style="stop-color:#fff;stop-opacity:.23529412"/><stop id="stop2029" offset=".978" style="stop-color:#fff;stop-opacity:.15686275"/><stop id="stop2031" offset="1" style="stop-color:#fff;stop-opacity:.39215687"/></linearGradient><linearGradient id="linearGradient3688-166-749"><stop id="stop2034" offset="0" style="stop-color:#181818;stop-opacity:1"/><stop id="stop2036" offset="1" style="stop-color:#181818;stop-opacity:0"/></linearGradient><linearGradient id="linearGradient3702-501-757"><stop id="stop2044" offset="0" style="stop-color:#181818;stop-opacity:0"/><stop id="stop2046" offset=".5" style="stop-color:#181818;stop-opacity:1"/><stop id="stop2048" offset="1" style="stop-color:#181818;stop-opacity:0"/></linearGradient><linearGradient id="linearGradient3024" x1="24" x2="24" y1="6.032" y2="41.934" gradientTransform="translate(143.99999,124.62501)" gradientUnits="userSpaceOnUse" xlink:href="#linearGradient3895"/><radialGradient id="radialGradient3038" cx="4.993" cy="43.5" r="2.5" fx="4.993" fy="43.5" gradientTransform="matrix(2.003784,0,0,1.4,27.98813,-17.4)" gradientUnits="userSpaceOnUse" xlink:href="#linearGradient3688-166-749"/><radialGradient id="radialGradient3040" cx="4.993" cy="43.5" r="2.5" fx="4.993" fy="43.5" gradientTransform="matrix(2.003784,0,0,1.4,-20.01187,-104.4)" gradientUnits="userSpaceOnUse" xlink:href="#linearGradient3688-166-749"/><linearGradient id="linearGradient3042" x1="25.058" x2="25.058" y1="47.028" y2="39.999" gradientUnits="userSpaceOnUse" xlink:href="#linearGradient3702-501-757"/><linearGradient id="linearGradient4232" x1="25" x2="25" y1="6" y2="44" gradientTransform="translate(143.99999,123.625)" gradientUnits="userSpaceOnUse" xlink:href="#linearGradient4236"/><linearGradient id="linearGradient2147" x1="65.522" x2="65.464" y1="34.596" y2="110.042" gradientTransform="matrix(0.34542334,0,0,0.34542334,30.387194,87.988765)" gradientUnits="userSpaceOnUse" xlink:href="#linearGradient1840"/><linearGradient id="linearGradient1014" x1="65.522" x2="65.464" y1="34.596" y2="110.042" gradientTransform="matrix(0.34542334,0,0,0.34542334,30.387194,87.988765)" gradientUnits="userSpaceOnUse" xlink:href="#linearGradient1840"/><mask id="mask1010" maskUnits="userSpaceOnUse"><path id="path1012" d="m 41.496062,99.938895 v 6.91e-4 8.406914 l -2.779578,1.64076 h -6.91e-4 v 15.97583 6.9e-4 h 27.064457 6.91e-4 V 109.98795 H 65.78025 L 63,108.34651 v -8.407581 z" style="isolation:isolate;fill:none;fill-opacity:1;stroke:url(#linearGradient1014);stroke-width:.69084668;stroke-miterlimit:4;stroke-dasharray:none;stroke-opacity:.64739883"/></mask></defs><defs id="defs65"><linearGradient id="_lgradient_6" x1=".5" x2=".5" y1="-.014" y2="1.014"><stop style="stop-color:#fff" id="stop47" offset="0%"/><stop style="stop-color:rgba(255,255,255,.23529412)" id="stop49" offset="6.316%"/><stop style="stop-color:rgba(255,255,255,.15686275)" id="stop51" offset="95.056%"/><stop style="stop-color:rgba(255,255,255,.39215687)" id="stop53" offset="100%"/></linearGradient><linearGradient id="_lgradient_7" x1=".5" x2=".5" y1="-.014" y2="1.014"><stop style="stop-color:#fff" id="stop56" offset="0%"/><stop style="stop-color:rgba(255,255,255,.23529412)" id="stop58" offset="6.316%"/><stop style="stop-color:rgba(255,255,255,.15686275)" id="stop60" offset="95.056%"/><stop style="stop-color:rgba(255,255,255,.39215687)" id="stop62" offset="100%"/></linearGradient></defs><g id="layer1" transform="translate(0,-96)" style="display:none"><rect style="opacity:1;isolation:isolate;fill:#72b91b;fill-opacity:.5606936;fill-rule:evenodd;stroke:none;stroke-width:.5;stroke-linecap:round;stroke-linejoin:round;stroke-miterlimit:4;stroke-dasharray:none;stroke-dashoffset:0;stroke-opacity:.71764706;paint-order:markers fill stroke" id="rect2151" width="32" height="32" x="0" y="96"/></g><g id="layer2" transform="translate(0,-96)"><path style="isolation:isolate;fill:#f29950;fill-opacity:1;stroke-width:.06411162" id="path1276" d="m 15.821719,104 -12.4603691,7.3552 v 14.71043 H 28.28209 V 111.3552 Z"/><path style="fill:none;stroke:#000;stroke-width:.31806308px;stroke-linecap:butt;stroke-linejoin:miter;stroke-opacity:1" id="path1793" d="M 28.28209,111.3552 Z"/><path style="fill:none;stroke:#000;stroke-width:.31806308px;stroke-linecap:butt;stroke-linejoin:miter;stroke-opacity:1" id="path1795" d="M 28.282506,111.35496 Z"/><path id="path1810" d="m 3.3613499,111.3552 2.7982107,-1.65174" style="isolation:isolate;fill:none;fill-opacity:1;stroke:#de6d11;stroke-width:.31806308;stroke-linecap:round;stroke-linejoin:round;stroke-miterlimit:4;stroke-dasharray:none;stroke-opacity:.66473993"/><path style="isolation:isolate;fill:none;fill-opacity:1;stroke:#de6d11;stroke-width:.31806308;stroke-linecap:round;stroke-linejoin:round;stroke-miterlimit:4;stroke-dasharray:none;stroke-opacity:.66473993" id="path1753" d="m 28.282186,111.3552 -2.79821,-1.65174"/><g style="opacity:.6;isolation:isolate" id="g2064" transform="matrix(0.75433482,0,0,0.4188026,-2.2822295,107.56627)"><rect style="fill:url(#radialGradient3038);fill-opacity:1;stroke:none" id="rect2058" width="5" height="7" x="38" y="40"/><rect style="fill:url(#radialGradient3040);fill-opacity:1;stroke:none" id="rect2060" width="5" height="7" x="-10" y="-47" transform="scale(-1)"/><rect style="fill:url(#linearGradient3042);fill-opacity:1;stroke:none" id="rect2062" width="28" height="7" x="10" y="40"/></g></g><g id="layer4" transform="translate(0,-96)"><path style="isolation:isolate;fill:url(#linearGradient1462);fill-opacity:1;stroke-width:.06411162" id="path1282" d="M 5.9215934,102.10205 H 25.722021 v 21.58487 H 5.9215934 v -21.58474 z"/><path style="isolation:isolate;fill:url(#linearGradient1443);fill-opacity:1;stroke-width:.06411162" id="path1290" d="M 3.3614755,111.35468 V 126.0651 H 28.282214 l -12.460369,-7.35522 z"/><path id="path1292" d="m 28.282506,111.35496 -12.460604,7.35507 12.460604,7.35534 z" style="isolation:isolate;fill:url(#linearGradient1862);fill-opacity:1;stroke-width:.06411162"/><path style="isolation:isolate;fill:none;fill-opacity:1;stroke:#578427;stroke-width:.31806308;stroke-linecap:round;stroke-linejoin:round;stroke-miterlimit:4;stroke-dasharray:none;stroke-opacity:.64739883" id="path1766" d="M 25.722021,112.86542 V 102.10205 H 5.9215934 v 10.76383"/><path style="isolation:isolate;fill:none;stroke:#bc8d12;stroke-width:.31806308px;stroke-linecap:round;stroke-linejoin:miter;stroke-opacity:.71676301" id="path1797" d="m 28.282506,111.35496 -2.29e-4,14.71014 c 0,0 -24.920736,0 -24.920736,0 l -1.596e-4,-14.7099"/><path style="isolation:isolate;fill:none;fill-opacity:1;stroke:url(#linearGradient1890);stroke-width:2;stroke-linecap:round;stroke-linejoin:round;stroke-miterlimit:4;stroke-dasharray:none" id="path1882" d="M 102.46328,109.93582 63.287503,86.81082 24.111722,63.68582" mask="url(#mask1920)" transform="matrix(0.31806307,0,0,0.31806307,-4.3075737,91.098566)"/><path id="path1936" d="M 102.4642,63.686707 63.287682,86.811295" mask="url(#mask1959)" transform="matrix(0.31806307,0,0,0.31806307,-4.3075737,91.098566)" style="isolation:isolate;fill:none;stroke:url(#linearGradient1944);stroke-width:2;stroke-linecap:round;stroke-linejoin:round;stroke-miterlimit:4;stroke-dasharray:none;stroke-opacity:.71764706"/></g><g id="layer3" transform="translate(0,-96)"><path style="fill:none;stroke:#bc8d12;stroke-width:.31806308px;stroke-linecap:round;stroke-linejoin:round;stroke-opacity:.71764706" id="path1817" d="M 28.282214,126.0651 3.3614755,111.35468"/><path style="fill:none;stroke:#bc8d12;stroke-width:.31806308px;stroke-linecap:round;stroke-linejoin:round;stroke-opacity:.71764706" id="path1819" d="m 28.282506,111.35496 -12.460604,7.35507"/><path style="opacity:1;isolation:isolate;fill:url(#linearGradient1878);fill-opacity:1;fill-rule:evenodd;stroke:none;stroke-width:.22843263;stroke-linecap:round;stroke-linejoin:round;stroke-miterlimit:4;stroke-dasharray:none;stroke-dashoffset:0;stroke-opacity:1;paint-order:markers fill stroke" id="rect1537" d="m 15.275151,104.41328 v 1.01523 c -0.814443,0.11455 -1.41111,0.42867 -1.789984,0.9425 -0.378874,0.51495 -0.569519,1.09463 -0.569519,1.73779 0,0.49001 0.106656,0.92093 0.318779,1.29073 0.212124,0.36868 0.488895,0.65579 0.829185,0.85997 0.340289,0.20638 0.813316,0.41281 1.417888,0.62261 0.672629,0.23818 1.107234,0.43447 1.302332,0.58982 0.195063,0.15426 0.292457,0.38227 0.292457,0.68284 0,0.29038 -0.09736,0.53775 -0.292457,0.74308 -0.195098,0.20534 -0.501504,0.3074 -0.915513,0.3074 -0.885878,0 -1.407667,-0.47882 -1.565344,-1.43729 l -1.70142,0.4437 c 0.343664,1.5245 1.234182,2.36153 2.673597,2.50897 v 1.30791 h 1.100224 v -1.31461 c 0.863228,-0.0908 1.523361,-0.39254 1.980492,-0.90525 0.457133,-0.51158 0.686191,-1.1513 0.686191,-1.91914 0,-0.50022 -0.110967,-0.93692 -0.332165,-1.31126 -0.222322,-0.37318 -0.518479,-0.66703 -0.89053,-0.87916 -0.370924,-0.21212 -0.883656,-0.43793 -1.537012,-0.67614 -0.594372,-0.21892 -0.98344,-0.40152 -1.163801,-0.549 -0.181487,-0.14861 -0.272156,-0.36057 -0.272156,-0.63734 0,-0.2711 0.09411,-0.50254 0.282417,-0.6931 0.18715,-0.19057 0.436721,-0.28577 0.747537,-0.28577 0.619272,0 1.075221,0.42636 1.371264,1.27936 l 1.515597,-0.6215 c -0.361814,-1.24431 -1.158255,-1.93965 -2.387835,-2.08712 v -1.01523 z"/><path style="opacity:1;isolation:isolate;fill:#1e6600;fill-opacity:1;fill-rule:evenodd;stroke:none;stroke-width:.22843263;stroke-linecap:round;stroke-linejoin:round;stroke-miterlimit:4;stroke-dasharray:none;stroke-dashoffset:0;stroke-opacity:1;paint-order:markers fill stroke" id="path1866" d="m 15.275049,104.41298 v 0.31806 h 1.100175 v -0.31806 z m 0,1.01569 c -0.814444,0.11456 -1.410852,0.42856 -1.789726,0.94239 -0.378876,0.51495 -0.569656,1.09439 -0.569656,1.73754 0,0.0433 0.0052,0.0837 0.0068,0.12611 0.03456,-0.56677 0.222155,-1.08256 0.562822,-1.54559 0.378873,-0.51382 0.975281,-0.82783 1.789726,-0.94239 z m 1.100175,0 v 0.31806 c 1.132696,0.13587 1.893413,0.74241 2.289806,1.80899 l 0.09815,-0.0404 c -0.361815,-1.24432 -1.158379,-1.93919 -2.387958,-2.08667 z m -1.515148,2.56998 c -0.0075,0.0508 -0.01367,0.10192 -0.01367,0.15593 0,0.27676 0.09061,0.48876 0.272093,0.63736 0.180362,0.14748 0.569167,0.33025 1.163539,0.54916 0.653357,0.23822 1.166587,0.46376 1.537511,0.67588 0.372051,0.21212 0.667883,0.50585 0.890205,0.87903 0.202195,0.34217 0.307473,0.73924 0.324897,1.18652 0.0034,-0.0639 0.0075,-0.12745 0.0075,-0.1932 0,-0.50021 -0.111153,-0.93643 -0.33235,-1.31077 -0.222322,-0.37318 -0.518154,-0.66752 -0.890205,-0.87964 -0.370924,-0.21212 -0.884156,-0.43766 -1.537512,-0.67589 -0.594371,-0.21891 -0.983178,-0.40168 -1.163539,-0.54915 -0.143897,-0.11782 -0.228641,-0.27702 -0.258426,-0.47523 z m -0.557232,3.76954 -1.701513,0.44355 c 0.02316,0.10271 0.04891,0.20171 0.07703,0.29818 l 1.624482,-0.42429 c 0.157677,0.95848 0.679589,1.4375 1.565466,1.4375 0.414011,0 0.720576,-0.10217 0.915675,-0.3075 0.195099,-0.20534 0.292592,-0.4526 0.292592,-0.74298 0,-0.0566 -0.0074,-0.10817 -0.01429,-0.15965 -0.02982,0.22247 -0.120007,0.41796 -0.278305,0.58457 -0.195098,0.20533 -0.501664,0.3075 -0.915673,0.3075 -0.885878,0 -1.40779,-0.4784 -1.565468,-1.43688 z"/><path style="isolation:isolate;fill:#fff;fill-opacity:1;stroke-width:.0696266" id="path977" d="m 41.496414,99.939453 v 8.406247 l -2.78125,1.64258 v 15.97461 h 27.064453 0.002 v -15.97461 h -0.002 l -2.779297,-1.64062 v -8.408207 z" mask="url(#mask1010)" transform="matrix(0.92079207,0,0,0.92079207,-32.288096,10.079209)"/></g></svg>