<svg xmlns="http://www.w3.org/2000/svg" xmlns:svg="http://www.w3.org/2000/svg" xmlns:xlink="http://www.w3.org/1999/xlink" style="isolation:isolate" id="svg77" width="128" height="128" version="1.1" viewBox="0 0 128 128"><metadata id="metadata81"/><defs id="defs43"><linearGradient id="linearGradient1910"><stop id="stop1902" offset="0" style="stop-color:#fff;stop-opacity:.76878613"/><stop id="stop1908" offset="1" style="stop-color:#cacaca;stop-opacity:.76878613"/></linearGradient><linearGradient id="linearGradient1840"><stop style="stop-color:#fff;stop-opacity:.76878613" id="stop1836" offset="0"/><stop id="stop1846" offset=".14" style="stop-color:#c7c7c7;stop-opacity:.30057803"/><stop style="stop-color:#c7c7c7;stop-opacity:.3019608" id="stop1848" offset=".839"/><stop style="stop-color:#b1b1b1;stop-opacity:.89411765" id="stop1838" offset="1"/></linearGradient><linearGradient id="linearGradient1460"><stop style="stop-color:#c6f27b;stop-opacity:1" id="stop1456" offset="0"/><stop style="stop-color:#63ae21;stop-opacity:1" id="stop1458" offset="1"/></linearGradient><linearGradient id="linearGradient1441"><stop style="stop-color:#f2d666;stop-opacity:1" id="stop1437" offset="0"/><stop style="stop-color:#ecba3d;stop-opacity:1" id="stop1439" offset="1"/></linearGradient><linearGradient id="_lgradient_5" x1="64" x2="64" y1="15.5" y2="118.5" gradientUnits="userSpaceOnUse"><stop style="stop-color:#63ae21;stop-opacity:1" id="stop30" offset="0%"/><stop style="stop-color:#3a9104" id="stop36" offset="100%"/><stop style="stop-color:#775f5b" id="stop38" offset="100%"/><stop style="stop-color:#93d049;stop-opacity:1" id="stop40" offset="100%"/></linearGradient><linearGradient id="_lgradient_3" x1="10.146" x2="10.146" y1="195.562" y2="203.992" gradientTransform="scale(1.6858826,0.59316113)" gradientUnits="userSpaceOnUse"><stop id="stop960" offset="0%" style="stop-color:#000"/><stop id="stop962" offset="100%" style="stop-color:#000"/></linearGradient><linearGradient id="linearGradient1046" x1=".5" x2=".5" y1="-.014" y2="1.014"><stop id="stop999" offset="0%" style="stop-color:#fff"/><stop id="stop1001" offset="6.316%" style="stop-color:rgba(255,255,255,.23529412)"/><stop id="stop1003" offset="95.056%" style="stop-color:rgba(255,255,255,.15686275)"/><stop id="stop1005" offset="100%" style="stop-color:rgba(255,255,255,.39215687)"/></linearGradient><linearGradient id="linearGradient1443" x1="54.782" x2="60.551" y1="64.134" y2="115.209" gradientTransform="matrix(1.3953735,0,0,1.3953735,-25.022312,-33.599838)" gradientUnits="userSpaceOnUse" xlink:href="#linearGradient1441"/><linearGradient id="linearGradient1462" x1="61.313" x2="62.414" y1="-1.354" y2="103.595" gradientTransform="matrix(1.3953735,0,0,1.3953735,-25.022312,-33.599838)" gradientUnits="userSpaceOnUse" xlink:href="#linearGradient1460"/><linearGradient id="linearGradient1791" x1="61.313" x2="62.414" y1="-1.354" y2="103.595" gradientUnits="userSpaceOnUse" xlink:href="#linearGradient1460"/><mask id="mask1787" maskUnits="userSpaceOnUse"><path id="path1789" d="m 32.16081,22.561267 c 20.751048,0 41.502096,0 62.253144,0 V 102.45875 H 32.16081 V 22.561671 Z" style="isolation:isolate;fill:url(#linearGradient1791);fill-opacity:1;stroke-width:.20156889"/></mask><linearGradient id="linearGradient1862" x1="110.047" x2="82.774" y1="61.27" y2="118.627" gradientTransform="matrix(1.3953735,0,0,1.3953735,-25.022312,-33.599838)" gradientUnits="userSpaceOnUse" xlink:href="#linearGradient1441"/><linearGradient id="linearGradient1878" x1="63.874" x2="64.698" y1="34.743" y2="72.628" gradientTransform="matrix(1.3953735,0,0,1.3953735,-25.022312,-23.462129)" gradientUnits="userSpaceOnUse" xlink:href="#_lgradient_5"/><linearGradient id="linearGradient1890" x1="25" x2="101" y1="64" y2="110" gradientUnits="userSpaceOnUse" xlink:href="#linearGradient1910"/><linearGradient id="linearGradient1924" x1="54.782" x2="60.551" y1="64.134" y2="115.209" gradientUnits="userSpaceOnUse" xlink:href="#linearGradient1441"/><mask id="mask1920" maskUnits="userSpaceOnUse"><path id="path1922" d="m 24.111722,63.68582 v 46.25 h 78.351558 l -39.175777,-23.125 z" style="isolation:isolate;fill:url(#linearGradient1924);fill-opacity:1;stroke-width:.20156889"/></mask><linearGradient id="linearGradient1944" x1="102.465" x2="63.288" y1="63.688" y2="86.811" gradientUnits="userSpaceOnUse" xlink:href="#linearGradient1910"/><linearGradient id="linearGradient1963" x1="110.047" x2="82.774" y1="61.27" y2="118.627" gradientUnits="userSpaceOnUse" xlink:href="#linearGradient1441"/><mask id="mask1959" maskUnits="userSpaceOnUse"><path style="isolation:isolate;fill:url(#linearGradient1963);fill-opacity:1;stroke-width:.20156889" id="path1961" d="M 102.4642,63.686707 63.287682,86.811295 102.4642,109.93669 Z"/></mask><linearGradient id="linearGradient1971" x1="76" x2="116" y1="47" y2="73" gradientUnits="userSpaceOnUse" xlink:href="#linearGradient1910"/><mask id="mask1994" maskUnits="userSpaceOnUse"><path id="path1996" d="m 63.287109,40.5625 -39.175781,23.125 v 46.25 h 78.351562 v -46.25 z" style="isolation:isolate;fill:#f29950;fill-opacity:1;stroke-width:.20156889"/></mask><linearGradient id="linearGradient4236"><stop id="stop2020" offset="0" style="stop-color:#575d5e;stop-opacity:1"/><stop id="stop2022" offset="1" style="stop-color:#292d2e;stop-opacity:1"/></linearGradient><linearGradient id="linearGradient3895"><stop id="stop2025" offset="0" style="stop-color:#fff;stop-opacity:1"/><stop id="stop2027" offset=".03" style="stop-color:#fff;stop-opacity:.23529412"/><stop id="stop2029" offset=".978" style="stop-color:#fff;stop-opacity:.15686275"/><stop id="stop2031" offset="1" style="stop-color:#fff;stop-opacity:.39215687"/></linearGradient><linearGradient id="linearGradient3688-166-749"><stop id="stop2034" offset="0" style="stop-color:#181818;stop-opacity:1"/><stop id="stop2036" offset="1" style="stop-color:#181818;stop-opacity:0"/></linearGradient><linearGradient id="linearGradient3702-501-757"><stop id="stop2044" offset="0" style="stop-color:#181818;stop-opacity:0"/><stop id="stop2046" offset=".5" style="stop-color:#181818;stop-opacity:1"/><stop id="stop2048" offset="1" style="stop-color:#181818;stop-opacity:0"/></linearGradient><linearGradient id="linearGradient3024" x1="24" x2="24" y1="6.032" y2="41.934" gradientTransform="translate(143.99999,124.62501)" gradientUnits="userSpaceOnUse" xlink:href="#linearGradient3895"/><radialGradient id="radialGradient3038" cx="4.993" cy="43.5" r="2.5" fx="4.993" fy="43.5" gradientTransform="matrix(2.003784,0,0,1.4,27.98813,-17.4)" gradientUnits="userSpaceOnUse" xlink:href="#linearGradient3688-166-749"/><radialGradient id="radialGradient3040" cx="4.993" cy="43.5" r="2.5" fx="4.993" fy="43.5" gradientTransform="matrix(2.003784,0,0,1.4,-20.01187,-104.4)" gradientUnits="userSpaceOnUse" xlink:href="#linearGradient3688-166-749"/><linearGradient id="linearGradient3042" x1="25.058" x2="25.058" y1="47.028" y2="39.999" gradientUnits="userSpaceOnUse" xlink:href="#linearGradient3702-501-757"/><linearGradient id="linearGradient4232" x1="25" x2="25" y1="6" y2="44" gradientTransform="translate(143.99999,123.625)" gradientUnits="userSpaceOnUse" xlink:href="#linearGradient4236"/><linearGradient id="linearGradient2147" x1="65.522" x2="64.215" y1="34.596" y2="109.938" gradientUnits="userSpaceOnUse" xlink:href="#linearGradient1840"/><mask id="mask2143" maskUnits="userSpaceOnUse"><path style="isolation:isolate;fill:none;fill-opacity:1;stroke:url(#linearGradient2147);stroke-width:2;stroke-miterlimit:4;stroke-dasharray:none;stroke-opacity:.64739883" id="path2145" d="m 32.160156,34.595607 v 0.002 24.337988 l -8.046875,4.75 h -0.002 v 46.250005 0.002 h 78.351559 0.002 V 63.687597 h -0.002 l -8.04882,-4.751953 v -24.33994 z"/></mask></defs><defs id="defs65"><linearGradient id="_lgradient_6" x1=".5" x2=".5" y1="-.014" y2="1.014"><stop style="stop-color:#fff" id="stop47" offset="0%"/><stop style="stop-color:rgba(255,255,255,.23529412)" id="stop49" offset="6.316%"/><stop style="stop-color:rgba(255,255,255,.15686275)" id="stop51" offset="95.056%"/><stop style="stop-color:rgba(255,255,255,.39215687)" id="stop53" offset="100%"/></linearGradient><linearGradient id="_lgradient_7" x1=".5" x2=".5" y1="-.014" y2="1.014"><stop style="stop-color:#fff" id="stop56" offset="0%"/><stop style="stop-color:rgba(255,255,255,.23529412)" id="stop58" offset="6.316%"/><stop style="stop-color:rgba(255,255,255,.15686275)" id="stop60" offset="95.056%"/><stop style="stop-color:rgba(255,255,255,.39215687)" id="stop62" offset="100%"/></linearGradient></defs><g id="layer1" style="display:none"><rect style="opacity:1;isolation:isolate;fill:#72b91b;fill-opacity:.5606936;fill-rule:evenodd;stroke:none;stroke-width:2;stroke-linecap:round;stroke-linejoin:round;stroke-miterlimit:4;stroke-dasharray:none;stroke-dashoffset:0;stroke-opacity:.71764706;paint-order:markers fill stroke" id="rect2151" width="128" height="128" x="0" y="0"/></g><g id="layer2"><path style="isolation:isolate;fill:#f29950;fill-opacity:1;stroke-width:.28126389" id="path1276" d="M 63.286845,23 8.6219967,55.268013 V 119.80404 H 117.9517 V 55.268013 Z"/><path style="fill:none;stroke:#000;stroke-width:1.39537346px;stroke-linecap:butt;stroke-linejoin:miter;stroke-opacity:1" id="path1793" d="M 117.9517,55.268013 Z"/><path style="fill:none;stroke:#000;stroke-width:1.39537346px;stroke-linecap:butt;stroke-linejoin:miter;stroke-opacity:1" id="path1795" d="M 117.95352,55.266906 Z"/><path id="path1810" d="M 8.6219967,55.268013 20.898017,48.021623" style="isolation:isolate;fill:none;fill-opacity:1;stroke:#de6d11;stroke-width:1.39537346;stroke-linecap:round;stroke-linejoin:round;stroke-miterlimit:4;stroke-dasharray:none;stroke-opacity:.66473993"/><path style="isolation:isolate;fill:none;fill-opacity:1;stroke:#de6d11;stroke-width:1.39537346;stroke-linecap:round;stroke-linejoin:round;stroke-miterlimit:4;stroke-dasharray:none;stroke-opacity:.66473993" id="path1753" d="M 117.95212,55.268013 105.6761,48.021623"/><g style="opacity:.6;isolation:isolate" id="g2064" transform="matrix(3.30934,0,0,1.8373276,-16.136933,38.645602)"><rect style="fill:url(#radialGradient3038);fill-opacity:1;stroke:none" id="rect2058" width="5" height="7" x="38" y="40"/><rect style="fill:url(#radialGradient3040);fill-opacity:1;stroke:none" id="rect2060" width="5" height="7" x="-10" y="-47" transform="scale(-1)"/><rect style="fill:url(#linearGradient3042);fill-opacity:1;stroke:none" id="rect2062" width="28" height="7" x="10" y="40"/></g></g><g id="layer4"><path style="isolation:isolate;fill:url(#linearGradient1462);fill-opacity:1;stroke-width:.28126389" id="path1282" d="M 19.854032,14.673527 H 106.72043 V 109.36839 H 19.854032 v -94.6943 z"/><path style="isolation:isolate;fill:url(#linearGradient1443);fill-opacity:1;stroke-width:.28126389" id="path1290" d="M 8.6225472,55.265669 V 119.8017 H 117.95224 L 63.287395,87.533682 Z"/><path id="path1292" d="M 117.95352,55.266906 63.287645,87.534345 117.95352,119.80291 Z" style="isolation:isolate;fill:url(#linearGradient1862);fill-opacity:1;stroke-width:.28126389"/><path style="isolation:isolate;fill:none;fill-opacity:1;stroke:#578427;stroke-width:1.39537346;stroke-linecap:round;stroke-linejoin:round;stroke-miterlimit:4;stroke-dasharray:none;stroke-opacity:.64739883" id="path1766" d="M 106.72043,61.893476 V 14.673527 H 19.854032 v 47.221954"/><path style="isolation:isolate;fill:none;stroke:#bc8d12;stroke-width:1.39537346px;stroke-linecap:round;stroke-linejoin:miter;stroke-opacity:.71676301" id="path1797" d="m 117.95352,55.266906 -10e-4,64.534794 c 0,0 -109.3296849,0 -109.3296849,0 L 8.6221346,55.268013"/><path style="isolation:isolate;fill:none;fill-opacity:1;stroke:url(#linearGradient1890);stroke-width:2;stroke-linecap:round;stroke-linejoin:round;stroke-miterlimit:4;stroke-dasharray:none" id="path1882" d="M 102.46328,109.93582 63.287503,86.81082 24.111722,63.68582" mask="url(#mask1920)" transform="matrix(1.3953735,0,0,1.3953735,-25.022313,-33.599839)"/><path id="path1936" d="M 102.4642,63.686707 63.287682,86.811295" mask="url(#mask1959)" transform="matrix(1.3953735,0,0,1.3953735,-25.022313,-33.599839)" style="isolation:isolate;fill:none;stroke:url(#linearGradient1944);stroke-width:2;stroke-linecap:round;stroke-linejoin:round;stroke-miterlimit:4;stroke-dasharray:none;stroke-opacity:.71764706"/><path style="isolation:isolate;fill:#fefaf7;fill-opacity:1;stroke:url(#linearGradient1971);stroke-width:.20156889" id="path1821" d="m 24.111328,63.685547 v 46.250003 0.002 h 78.351562 m 0.002,0 v -46.25 h -0.002 L 94.414062,58.935597 V 34.593704 H 32.160156 v 0.002 24.33994 l -8.046875,4.75" mask="url(#mask2143)" transform="matrix(1.3953735,0,0,1.3953735,-25.022313,-33.599839)"/></g><g id="layer3"><path style="fill:none;stroke:#bc8d12;stroke-width:1.39537346px;stroke-linecap:round;stroke-linejoin:round;stroke-opacity:.71764706" id="path1817" d="M 117.95224,119.8017 8.6225472,55.265669"/><path style="fill:none;stroke:#bc8d12;stroke-width:1.39537346px;stroke-linecap:round;stroke-linejoin:round;stroke-opacity:.71764706" id="path1819" d="M 117.95352,55.266906 63.287645,87.534345"/><path style="opacity:1;isolation:isolate;fill:url(#linearGradient1878);fill-opacity:1;fill-rule:evenodd;stroke:none;stroke-width:1.00215602;stroke-linecap:round;stroke-linejoin:round;stroke-miterlimit:4;stroke-dasharray:none;stroke-dashoffset:0;stroke-opacity:1;paint-order:markers fill stroke" id="rect1537" d="m 60.888999,24.813076 v 4.453918 c -3.573047,0.502566 -6.19068,1.880657 -7.852834,4.134872 -1.662161,2.259152 -2.498536,4.80223 -2.498536,7.623823 0,2.149754 0.467912,4.040231 1.398515,5.66257 0.930606,1.617416 2.144829,2.877037 3.637711,3.772768 1.492882,0.905442 3.568098,1.811052 6.220412,2.731462 2.950891,1.044938 4.857544,1.90605 5.713459,2.587602 0.855763,0.676771 1.283038,1.677025 1.283038,2.995698 0,1.273933 -0.427116,2.359122 -1.283038,3.259944 -0.855914,0.90083 -2.200146,1.348608 -4.016448,1.348608 -3.886431,0 -6.17557,-2.100646 -6.867313,-6.305564 l -7.464297,1.946573 c 1.507691,6.688121 5.414476,10.360247 11.729332,11.007083 v 5.737931 h 4.826789 v -5.767295 c 3.787067,-0.3981 6.683133,-1.722155 8.688612,-3.971434 2.005483,-2.244344 3.010384,-5.050895 3.010384,-8.419479 0,-2.194496 -0.486825,-4.110357 -1.45724,-5.752611 C 74.982196,50.222387 73.682926,48.933219 72.050706,48.002614 70.423424,47.072009 68.174021,46.08137 65.307684,45.03627 62.700116,44.075887 60.993239,43.274765 60.201975,42.62777 59.405774,41.975837 59.008,41.045925 59.008,39.831714 c 0,-1.189374 0.412851,-2.204711 1.238993,-3.040722 0.821047,-0.836014 1.915937,-1.253673 3.279516,-1.253673 2.716808,0 4.717102,1.870498 6.015871,5.61266 l 6.64907,-2.726568 C 74.604134,32.964473 71.110071,29.913993 65.715787,29.266994 v -4.453918 z"/><path style="opacity:1;isolation:isolate;fill:#1e6600;fill-opacity:1;fill-rule:evenodd;stroke:none;stroke-width:1.00215602;stroke-linecap:round;stroke-linejoin:round;stroke-miterlimit:4;stroke-dasharray:none;stroke-dashoffset:0;stroke-opacity:1;paint-order:markers fill stroke" id="path1866" d="m 60.888547,24.8118 v 1.395372 h 4.826576 V 24.8118 Z m 0,4.455928 c -3.573047,0.502565 -6.189546,1.880124 -7.851702,4.134339 -1.662161,2.259152 -2.499134,4.801181 -2.499134,7.622775 0,0.190052 0.02266,0.367248 0.02997,0.553241 0.151579,-2.486489 0.974616,-4.749315 2.469155,-6.780643 1.662156,-2.254214 4.278655,-3.631773 7.851702,-4.134339 z m 4.826576,0 v 1.395373 c 4.969244,0.59602 8.306586,3.256997 10.045598,7.936186 l 0.430605,-0.177146 c -1.587317,-5.458936 -5.08192,-8.507414 -10.476203,-9.154413 z m -6.6471,11.274727 c -0.03276,0.223055 -0.05996,0.447156 -0.05996,0.68406 0,1.214211 0.397498,2.144266 1.193699,2.796198 0.791263,0.646997 2.496992,1.448819 5.104561,2.409201 2.866336,1.045097 5.117929,2.034565 6.745212,2.965169 1.63222,0.930607 2.930063,2.219198 3.905412,3.856355 0.88705,1.501175 1.348918,3.243144 1.425352,5.205396 0.01473,-0.280214 0.03271,-0.559125 0.03271,-0.84758 0,-2.194499 -0.487642,-4.108211 -1.458054,-5.750465 -0.97535,-1.637157 -2.273193,-2.928473 -3.905414,-3.859081 -1.62728,-0.930601 -3.878876,-1.92007 -6.745213,-2.965168 -2.607568,-0.960384 -4.313296,-1.762205 -5.104558,-2.409201 -0.631295,-0.516905 -1.003074,-1.215317 -1.133743,-2.084884 z m -2.444631,16.537357 -7.464703,1.945891 c 0.10158,0.450606 0.21458,0.884942 0.337942,1.308163 l 7.126761,-1.861406 c 0.691744,4.204916 2.981423,6.306434 6.867854,6.306434 1.816302,0 3.161236,-0.448213 4.01715,-1.349042 0.855921,-0.900823 1.283634,-1.985574 1.283634,-3.259505 0,-0.248493 -0.03233,-0.474569 -0.06268,-0.700413 -0.130788,0.975979 -0.526485,1.833646 -1.220951,2.564544 -0.855915,0.90083 -2.200848,1.349044 -4.017149,1.349044 -3.886433,0 -6.17611,-2.098793 -6.867855,-6.303709 z"/></g></svg>