<svg xmlns="http://www.w3.org/2000/svg" xmlns:svg="http://www.w3.org/2000/svg" xmlns:xlink="http://www.w3.org/1999/xlink" style="isolation:isolate" id="svg77" width="64" height="64" version="1.1" viewBox="0 0 64 64"><metadata id="metadata81"/><defs id="defs43"><linearGradient id="linearGradient1910"><stop id="stop1902" offset="0" style="stop-color:#fff;stop-opacity:.76878613"/><stop id="stop1908" offset="1" style="stop-color:#cacaca;stop-opacity:.76878613"/></linearGradient><linearGradient id="linearGradient1840"><stop style="stop-color:#fff;stop-opacity:.76878613" id="stop1836" offset="0"/><stop id="stop1846" offset=".14" style="stop-color:#c7c7c7;stop-opacity:.30057803"/><stop style="stop-color:#c7c7c7;stop-opacity:.3019608" id="stop1848" offset=".839"/><stop style="stop-color:#b1b1b1;stop-opacity:.89411765" id="stop1838" offset="1"/></linearGradient><linearGradient id="linearGradient1460"><stop style="stop-color:#c6f27b;stop-opacity:1" id="stop1456" offset="0"/><stop style="stop-color:#63ae21;stop-opacity:1" id="stop1458" offset="1"/></linearGradient><linearGradient id="linearGradient1441"><stop style="stop-color:#f2d666;stop-opacity:1" id="stop1437" offset="0"/><stop style="stop-color:#ecba3d;stop-opacity:1" id="stop1439" offset="1"/></linearGradient><linearGradient id="_lgradient_5" x1="64" x2="64" y1="15.5" y2="118.5" gradientUnits="userSpaceOnUse"><stop style="stop-color:#63ae21;stop-opacity:1" id="stop30" offset="0%"/><stop style="stop-color:#3a9104" id="stop36" offset="100%"/><stop style="stop-color:#775f5b" id="stop38" offset="100%"/><stop style="stop-color:#93d049;stop-opacity:1" id="stop40" offset="100%"/></linearGradient><linearGradient id="_lgradient_3" x1="10.146" x2="10.146" y1="195.562" y2="203.992" gradientTransform="scale(1.6858826,0.59316113)" gradientUnits="userSpaceOnUse"><stop id="stop960" offset="0%" style="stop-color:#000"/><stop id="stop962" offset="100%" style="stop-color:#000"/></linearGradient><linearGradient id="linearGradient1046" x1=".5" x2=".5" y1="-.014" y2="1.014"><stop id="stop999" offset="0%" style="stop-color:#fff"/><stop id="stop1001" offset="6.316%" style="stop-color:rgba(255,255,255,.23529412)"/><stop id="stop1003" offset="95.056%" style="stop-color:rgba(255,255,255,.15686275)"/><stop id="stop1005" offset="100%" style="stop-color:rgba(255,255,255,.39215687)"/></linearGradient><linearGradient id="linearGradient1443" x1="54.782" x2="60.551" y1="64.134" y2="115.209" gradientTransform="matrix(0.69084668,0,0,0.69084668,-12.078266,47.977531)" gradientUnits="userSpaceOnUse" xlink:href="#linearGradient1441"/><linearGradient id="linearGradient1462" x1="61.313" x2="62.414" y1="-1.354" y2="103.595" gradientTransform="matrix(0.69084668,0,0,0.69084668,-12.078266,47.977531)" gradientUnits="userSpaceOnUse" xlink:href="#linearGradient1460"/><linearGradient id="linearGradient1791" x1="61.313" x2="62.414" y1="-1.354" y2="103.595" gradientUnits="userSpaceOnUse" xlink:href="#linearGradient1460"/><mask id="mask1787" maskUnits="userSpaceOnUse"><path id="path1789" d="m 32.16081,22.561267 c 20.751048,0 41.502096,0 62.253144,0 V 102.45875 H 32.16081 V 22.561671 Z" style="isolation:isolate;fill:url(#linearGradient1791);fill-opacity:1;stroke-width:.20156889"/></mask><linearGradient id="linearGradient1862" x1="110.047" x2="82.774" y1="61.27" y2="118.627" gradientTransform="matrix(0.69084668,0,0,0.69084668,-12.078266,47.977531)" gradientUnits="userSpaceOnUse" xlink:href="#linearGradient1441"/><linearGradient id="linearGradient1878" x1="63.874" x2="64.698" y1="34.743" y2="72.628" gradientTransform="matrix(0.69084668,0,0,0.69084668,-12.078266,52.996691)" gradientUnits="userSpaceOnUse" xlink:href="#_lgradient_5"/><linearGradient id="linearGradient1890" x1="25" x2="101" y1="64" y2="110" gradientUnits="userSpaceOnUse" xlink:href="#linearGradient1910"/><linearGradient id="linearGradient1924" x1="54.782" x2="60.551" y1="64.134" y2="115.209" gradientUnits="userSpaceOnUse" xlink:href="#linearGradient1441"/><mask id="mask1920" maskUnits="userSpaceOnUse"><path id="path1922" d="m 24.111722,63.68582 v 46.25 h 78.351558 l -39.175777,-23.125 z" style="isolation:isolate;fill:url(#linearGradient1924);fill-opacity:1;stroke-width:.20156889"/></mask><linearGradient id="linearGradient1944" x1="102.465" x2="63.288" y1="63.688" y2="86.811" gradientUnits="userSpaceOnUse" xlink:href="#linearGradient1910"/><linearGradient id="linearGradient1963" x1="110.047" x2="82.774" y1="61.27" y2="118.627" gradientUnits="userSpaceOnUse" xlink:href="#linearGradient1441"/><mask id="mask1959" maskUnits="userSpaceOnUse"><path style="isolation:isolate;fill:url(#linearGradient1963);fill-opacity:1;stroke-width:.20156889" id="path1961" d="M 102.4642,63.686707 63.287682,86.811295 102.4642,109.93669 Z"/></mask><linearGradient id="linearGradient1971" x1="76" x2="116" y1="47" y2="73" gradientUnits="userSpaceOnUse" xlink:href="#linearGradient1910"/><mask id="mask1994" maskUnits="userSpaceOnUse"><path id="path1996" d="m 63.287109,40.5625 -39.175781,23.125 v 46.25 h 78.351562 v -46.25 z" style="isolation:isolate;fill:#f29950;fill-opacity:1;stroke-width:.20156889"/></mask><linearGradient id="linearGradient4236"><stop id="stop2020" offset="0" style="stop-color:#575d5e;stop-opacity:1"/><stop id="stop2022" offset="1" style="stop-color:#292d2e;stop-opacity:1"/></linearGradient><linearGradient id="linearGradient3895"><stop id="stop2025" offset="0" style="stop-color:#fff;stop-opacity:1"/><stop id="stop2027" offset=".03" style="stop-color:#fff;stop-opacity:.23529412"/><stop id="stop2029" offset=".978" style="stop-color:#fff;stop-opacity:.15686275"/><stop id="stop2031" offset="1" style="stop-color:#fff;stop-opacity:.39215687"/></linearGradient><linearGradient id="linearGradient3688-166-749"><stop id="stop2034" offset="0" style="stop-color:#181818;stop-opacity:1"/><stop id="stop2036" offset="1" style="stop-color:#181818;stop-opacity:0"/></linearGradient><linearGradient id="linearGradient3702-501-757"><stop id="stop2044" offset="0" style="stop-color:#181818;stop-opacity:0"/><stop id="stop2046" offset=".5" style="stop-color:#181818;stop-opacity:1"/><stop id="stop2048" offset="1" style="stop-color:#181818;stop-opacity:0"/></linearGradient><linearGradient id="linearGradient3024" x1="24" x2="24" y1="6.032" y2="41.934" gradientTransform="translate(143.99999,124.62501)" gradientUnits="userSpaceOnUse" xlink:href="#linearGradient3895"/><radialGradient id="radialGradient3038" cx="4.993" cy="43.5" r="2.5" fx="4.993" fy="43.5" gradientTransform="matrix(2.003784,0,0,1.4,27.98813,-17.4)" gradientUnits="userSpaceOnUse" xlink:href="#linearGradient3688-166-749"/><radialGradient id="radialGradient3040" cx="4.993" cy="43.5" r="2.5" fx="4.993" fy="43.5" gradientTransform="matrix(2.003784,0,0,1.4,-20.01187,-104.4)" gradientUnits="userSpaceOnUse" xlink:href="#linearGradient3688-166-749"/><linearGradient id="linearGradient3042" x1="25.058" x2="25.058" y1="47.028" y2="39.999" gradientUnits="userSpaceOnUse" xlink:href="#linearGradient3702-501-757"/><linearGradient id="linearGradient4232" x1="25" x2="25" y1="6" y2="44" gradientTransform="translate(143.99999,123.625)" gradientUnits="userSpaceOnUse" xlink:href="#linearGradient4236"/><linearGradient id="linearGradient2147" x1="65.522" x2="64.215" y1="34.596" y2="109.938" gradientUnits="userSpaceOnUse" xlink:href="#linearGradient1840"/><mask id="mask2143" maskUnits="userSpaceOnUse"><path style="isolation:isolate;fill:none;fill-opacity:1;stroke:url(#linearGradient2147);stroke-width:2;stroke-miterlimit:4;stroke-dasharray:none;stroke-opacity:.64739883" id="path2145" d="m 32.160156,34.595607 v 0.002 24.337988 l -8.046875,4.75 h -0.002 v 46.250005 0.002 h 78.351559 0.002 V 63.687597 h -0.002 l -8.04882,-4.751953 v -24.33994 z"/></mask></defs><defs id="defs65"><linearGradient id="_lgradient_6" x1=".5" x2=".5" y1="-.014" y2="1.014"><stop style="stop-color:#fff" id="stop47" offset="0%"/><stop style="stop-color:rgba(255,255,255,.23529412)" id="stop49" offset="6.316%"/><stop style="stop-color:rgba(255,255,255,.15686275)" id="stop51" offset="95.056%"/><stop style="stop-color:rgba(255,255,255,.39215687)" id="stop53" offset="100%"/></linearGradient><linearGradient id="_lgradient_7" x1=".5" x2=".5" y1="-.014" y2="1.014"><stop style="stop-color:#fff" id="stop56" offset="0%"/><stop style="stop-color:rgba(255,255,255,.23529412)" id="stop58" offset="6.316%"/><stop style="stop-color:rgba(255,255,255,.15686275)" id="stop60" offset="95.056%"/><stop style="stop-color:rgba(255,255,255,.39215687)" id="stop62" offset="100%"/></linearGradient></defs><g id="layer1" transform="translate(0,-64)" style="display:none"><rect style="opacity:1;isolation:isolate;fill:#72b91b;fill-opacity:.5606936;fill-rule:evenodd;stroke:none;stroke-width:1;stroke-linecap:round;stroke-linejoin:round;stroke-miterlimit:4;stroke-dasharray:none;stroke-dashoffset:0;stroke-opacity:.71764706;paint-order:markers fill stroke" id="rect2151" width="64" height="64" x="0" y="64"/></g><g id="layer2" transform="translate(0,-64)"><path style="isolation:isolate;fill:#f29950;fill-opacity:1;stroke-width:.1392532" id="path1276" d="M 31.643424,76 4.5789651,91.975829 V 123.92749 H 58.707887 V 91.975829 Z"/><path style="fill:none;stroke:#000;stroke-width:.69084668px;stroke-linecap:butt;stroke-linejoin:miter;stroke-opacity:1" id="path1793" d="M 58.707887,91.975829 Z"/><path style="fill:none;stroke:#000;stroke-width:.69084668px;stroke-linecap:butt;stroke-linejoin:miter;stroke-opacity:1" id="path1795" d="M 58.708788,91.975282 Z"/><path id="path1810" d="M 4.5789651,91.975829 10.656799,88.388157" style="isolation:isolate;fill:none;fill-opacity:1;stroke:#de6d11;stroke-width:.69084668;stroke-linecap:round;stroke-linejoin:round;stroke-miterlimit:4;stroke-dasharray:none;stroke-opacity:.66473993"/><path style="isolation:isolate;fill:none;fill-opacity:1;stroke:#de6d11;stroke-width:.69084668;stroke-linecap:round;stroke-linejoin:round;stroke-miterlimit:4;stroke-dasharray:none;stroke-opacity:.66473993" id="path1753" d="M 58.708095,91.975829 52.630261,88.388157"/><g style="opacity:.6;isolation:isolate" id="g2064" transform="matrix(1.6384477,0,0,0.90965729,-7.6791324,83.746107)"><rect style="fill:url(#radialGradient3038);fill-opacity:1;stroke:none" id="rect2058" width="5" height="7" x="38" y="40"/><rect style="fill:url(#radialGradient3040);fill-opacity:1;stroke:none" id="rect2060" width="5" height="7" x="-10" y="-47" transform="scale(-1)"/><rect style="fill:url(#linearGradient3042);fill-opacity:1;stroke:none" id="rect2062" width="28" height="7" x="10" y="40"/></g></g><g id="layer4" transform="translate(0,-64)"><path style="isolation:isolate;fill:url(#linearGradient1462);fill-opacity:1;stroke-width:.1392532" id="path1282" d="m 10.139924,71.87758 h 43.007383 v 46.88325 H 10.139924 V 71.877858 Z"/><path style="isolation:isolate;fill:url(#linearGradient1443);fill-opacity:1;stroke-width:.1392532" id="path1290" d="m 4.5792377,91.97467 v 31.95166 H 58.708154 L 31.643696,107.9505 Z"/><path id="path1292" d="M 58.708788,91.975282 31.64382,107.95083 58.708788,123.92694 Z" style="isolation:isolate;fill:url(#linearGradient1862);fill-opacity:1;stroke-width:.1392532"/><path style="isolation:isolate;fill:none;fill-opacity:1;stroke:#578427;stroke-width:.69084668;stroke-linecap:round;stroke-linejoin:round;stroke-miterlimit:4;stroke-dasharray:none;stroke-opacity:.64739883" id="path1766" d="M 53.147307,95.256084 V 71.87758 H 10.139924 v 23.379496"/><path style="isolation:isolate;fill:none;stroke:#bc8d12;stroke-width:.69084668px;stroke-linecap:round;stroke-linejoin:miter;stroke-opacity:.71676301" id="path1797" d="m 58.708788,91.975282 -4.95e-4,31.951048 c 0,0 -54.1289128,0 -54.1289128,0 L 4.5790334,91.975829"/><path style="isolation:isolate;fill:none;fill-opacity:1;stroke:url(#linearGradient1890);stroke-width:2;stroke-linecap:round;stroke-linejoin:round;stroke-miterlimit:4;stroke-dasharray:none" id="path1882" d="M 102.46328,109.93582 63.287503,86.81082 24.111722,63.68582" mask="url(#mask1920)" transform="matrix(0.69084668,0,0,0.69084668,-12.078267,47.97753)"/><path id="path1936" d="M 102.4642,63.686707 63.287682,86.811295" mask="url(#mask1959)" transform="matrix(0.69084668,0,0,0.69084668,-12.078267,47.97753)" style="isolation:isolate;fill:none;stroke:url(#linearGradient1944);stroke-width:2;stroke-linecap:round;stroke-linejoin:round;stroke-miterlimit:4;stroke-dasharray:none;stroke-opacity:.71764706"/><path style="isolation:isolate;fill:#fefaf7;fill-opacity:1;stroke:url(#linearGradient1971);stroke-width:.20156889" id="path1821" d="m 24.111328,63.685547 v 46.250003 0.002 h 78.351562 m 0.002,0 v -46.25 h -0.002 L 94.414062,58.935597 V 34.593704 H 32.160156 v 0.002 24.33994 l -8.046875,4.75" mask="url(#mask2143)" transform="matrix(0.69084668,0,0,0.69084668,-12.078267,47.97753)"/></g><g id="layer3" transform="translate(0,-64)"><path style="fill:none;stroke:#bc8d12;stroke-width:.69084668px;stroke-linecap:round;stroke-linejoin:round;stroke-opacity:.71764706" id="path1817" d="M 58.708154,123.92633 4.5792377,91.97467"/><path style="fill:none;stroke:#bc8d12;stroke-width:.69084668px;stroke-linecap:round;stroke-linejoin:round;stroke-opacity:.71764706" id="path1819" d="M 58.708788,91.975282 31.64382,107.95083"/><path style="opacity:1;isolation:isolate;fill:url(#linearGradient1878);fill-opacity:1;fill-rule:evenodd;stroke:none;stroke-width:.49616548;stroke-linecap:round;stroke-linejoin:round;stroke-miterlimit:4;stroke-dasharray:none;stroke-dashoffset:0;stroke-opacity:1;paint-order:markers fill stroke" id="rect1537" d="m 30.456255,76.89765 v 2.205126 c -1.769008,0.24882 -3.064994,0.93111 -3.887923,2.047167 -0.822932,1.118502 -1.23702,2.377575 -1.23702,3.77454 0,1.064339 0.231662,2.000311 0.692403,2.803528 0.460741,0.80078 1.0619,1.424415 1.801023,1.867889 0.739124,0.448283 1.766558,0.896649 3.079714,1.352342 1.46098,0.517346 2.404961,0.943682 2.828722,1.281116 0.423686,0.335069 0.63523,0.830293 0.63523,1.483165 0,0.630722 -0.211464,1.167996 -0.63523,1.613991 -0.423761,0.446 -1.089288,0.667695 -1.988535,0.667695 -1.924164,0 -3.057513,-1.040027 -3.399993,-3.121874 l -3.695559,0.963745 c 0.746455,3.311275 2.680696,5.129338 5.807169,5.449585 v 2.840835 h 2.389733 v -2.855373 c 1.87497,-0.197099 3.308807,-0.852635 4.301716,-1.966249 0.99291,-1.111171 1.490435,-2.500688 1.490435,-4.168467 0,-1.086491 -0.241026,-2.035031 -0.721476,-2.848107 -0.482894,-0.810554 -1.12616,-1.448818 -1.934269,-1.909559 -0.805664,-0.46074 -1.91934,-0.951204 -3.338457,-1.468631 -1.291002,-0.475484 -2.136073,-0.872118 -2.527827,-1.192444 -0.394197,-0.32277 -0.591134,-0.783167 -0.591134,-1.384321 0,-0.588857 0.204402,-1.091549 0.613423,-1.505456 0.406498,-0.413909 0.948576,-0.620691 1.623682,-0.620691 1.345086,0 2.335427,0.926079 2.978445,2.778817 L 38.032469,83.6361 c -0.785877,-2.702709 -2.51578,-4.212995 -5.18648,-4.533324 V 76.89765 Z"/><path style="opacity:1;isolation:isolate;fill:#1e6600;fill-opacity:1;fill-rule:evenodd;stroke:none;stroke-width:.49616548;stroke-linecap:round;stroke-linejoin:round;stroke-miterlimit:4;stroke-dasharray:none;stroke-dashoffset:0;stroke-opacity:1;paint-order:markers fill stroke" id="path1866" d="m 30.456032,76.897019 v 0.690846 h 2.389629 v -0.690846 z m 0,2.206121 c -1.769009,0.248819 -3.064432,0.930846 -3.887363,2.046902 -0.822932,1.118503 -1.237316,2.377056 -1.237316,3.774022 0,0.0941 0.01122,0.181824 0.01484,0.273908 0.07505,-1.231055 0.48253,-2.351376 1.222474,-3.357083 0.82293,-1.116057 2.118353,-1.798083 3.887362,-2.046902 z m 2.389629,0 v 0.690847 c 2.460263,0.295087 4.112573,1.612532 4.973555,3.92919 l 0.213192,-0.0877 c -0.785877,-2.70271 -2.516049,-4.212007 -5.186747,-4.532334 z m -3.290967,5.582096 c -0.01622,0.110433 -0.02969,0.221385 -0.02969,0.338676 0,0.601153 0.196801,1.061622 0.590998,1.384392 0.391753,0.320327 1.236256,0.717307 2.527258,1.192791 1.419118,0.517426 2.533877,1.007308 3.339541,1.46805 0.80811,0.460741 1.450669,1.09872 1.933562,1.909273 0.439176,0.743229 0.667846,1.605674 0.70569,2.577181 0.0073,-0.138733 0.01619,-0.276822 0.01619,-0.419635 0,-1.086492 -0.241429,-2.033967 -0.721879,-2.847043 -0.482894,-0.810554 -1.125453,-1.449882 -1.933563,-1.910624 -0.805663,-0.460739 -1.920424,-0.950623 -3.339542,-1.468049 -1.291001,-0.475484 -2.135504,-0.872464 -2.527256,-1.19279 -0.312553,-0.25592 -0.49662,-0.601702 -0.561314,-1.032222 z m -1.210332,8.187612 -3.69576,0.963407 c 0.05029,0.223095 0.106238,0.438133 0.167314,0.647669 l 3.528446,-0.921579 c 0.342481,2.081846 1.476096,3.122303 3.400261,3.122303 0.899247,0 1.565122,-0.221908 1.988883,-0.667908 0.423764,-0.445995 0.635525,-0.983053 0.635525,-1.613774 0,-0.123028 -0.01601,-0.234958 -0.03103,-0.346773 -0.06475,0.483206 -0.260661,0.907834 -0.60449,1.269701 -0.423762,0.445999 -1.089636,0.667909 -1.988883,0.667909 -1.924165,0 -3.05778,-1.039108 -3.400261,-3.120955 z"/></g></svg>