<svg xmlns="http://www.w3.org/2000/svg" xmlns:svg="http://www.w3.org/2000/svg" xmlns:xlink="http://www.w3.org/1999/xlink" style="isolation:isolate" id="svg77" width="16" height="16" version="1.1" viewBox="0 0 16 16"><metadata id="metadata81"/><defs id="defs43"><linearGradient id="linearGradient963"><stop style="stop-color:#fff;stop-opacity:.87283236" id="stop958" offset="0"/><stop id="stop965" offset=".105" style="stop-color:#bebebe;stop-opacity:.30635837"/><stop style="stop-color:#9c9c9c;stop-opacity:.24277456" id="stop967" offset=".837"/><stop style="stop-color:#d0d0d0;stop-opacity:.77456647" id="stop961" offset="1"/></linearGradient><linearGradient id="linearGradient1910"><stop id="stop1902" offset="0" style="stop-color:#fff;stop-opacity:.76878613"/><stop id="stop1908" offset="1" style="stop-color:#cacaca;stop-opacity:.76878613"/></linearGradient><linearGradient id="linearGradient1840"><stop style="stop-color:#fff;stop-opacity:.76878613" id="stop1836" offset="0"/><stop id="stop1846" offset=".14" style="stop-color:#c7c7c7;stop-opacity:.30057803"/><stop style="stop-color:#c7c7c7;stop-opacity:.3019608" id="stop1848" offset=".839"/><stop style="stop-color:#b1b1b1;stop-opacity:.89411765" id="stop1838" offset="1"/></linearGradient><linearGradient id="linearGradient1460"><stop style="stop-color:#c6f27b;stop-opacity:1" id="stop1456" offset="0"/><stop style="stop-color:#63ae21;stop-opacity:1" id="stop1458" offset="1"/></linearGradient><linearGradient id="linearGradient1441"><stop style="stop-color:#f2d666;stop-opacity:1" id="stop1437" offset="0"/><stop style="stop-color:#ecba3d;stop-opacity:1" id="stop1439" offset="1"/></linearGradient><linearGradient id="_lgradient_5" x1="64" x2="64" y1="15.5" y2="118.5" gradientUnits="userSpaceOnUse"><stop style="stop-color:#63ae21;stop-opacity:1" id="stop30" offset="0%"/><stop style="stop-color:#3a9104" id="stop36" offset="100%"/><stop style="stop-color:#775f5b" id="stop38" offset="100%"/><stop style="stop-color:#93d049;stop-opacity:1" id="stop40" offset="100%"/></linearGradient><linearGradient id="_lgradient_3" x1="10.146" x2="10.146" y1="195.562" y2="203.992" gradientTransform="scale(1.6858826,0.59316113)" gradientUnits="userSpaceOnUse"><stop id="stop960" offset="0%" style="stop-color:#000"/><stop id="stop962" offset="100%" style="stop-color:#000"/></linearGradient><linearGradient id="linearGradient1046" x1=".5" x2=".5" y1="-.014" y2="1.014"><stop id="stop999" offset="0%" style="stop-color:#fff"/><stop id="stop1001" offset="6.316%" style="stop-color:rgba(255,255,255,.23529412)"/><stop id="stop1003" offset="95.056%" style="stop-color:rgba(255,255,255,.15686275)"/><stop id="stop1005" offset="100%" style="stop-color:rgba(255,255,255,.39215687)"/></linearGradient><linearGradient id="linearGradient1443" x1="54.782" x2="60.551" y1="64.134" y2="115.209" gradientTransform="matrix(0.17271167,0,0,0.17271167,-3.0195665,107.99438)" gradientUnits="userSpaceOnUse" xlink:href="#linearGradient1441"/><linearGradient id="linearGradient1462" x1="61.313" x2="62.414" y1="-1.354" y2="103.595" gradientTransform="matrix(0.17271167,0,0,0.17271167,-3.0195665,107.99438)" gradientUnits="userSpaceOnUse" xlink:href="#linearGradient1460"/><linearGradient id="linearGradient1791" x1="61.313" x2="62.414" y1="-1.354" y2="103.595" gradientUnits="userSpaceOnUse" xlink:href="#linearGradient1460"/><mask id="mask1787" maskUnits="userSpaceOnUse"><path id="path1789" d="m 32.16081,22.561267 c 20.751048,0 41.502096,0 62.253144,0 V 102.45875 H 32.16081 V 22.561671 Z" style="isolation:isolate;fill:url(#linearGradient1791);fill-opacity:1;stroke-width:.20156889"/></mask><linearGradient id="linearGradient1862" x1="110.047" x2="82.774" y1="61.27" y2="118.627" gradientTransform="matrix(0.17271167,0,0,0.17271167,-3.0195665,107.99438)" gradientUnits="userSpaceOnUse" xlink:href="#linearGradient1441"/><linearGradient id="linearGradient1878" x1="63.874" x2="64.698" y1="34.743" y2="72.628" gradientTransform="matrix(0.17271167,0,0,0.17271167,-3.0195665,109.24917)" gradientUnits="userSpaceOnUse" xlink:href="#_lgradient_5"/><linearGradient id="linearGradient1890" x1="25" x2="101" y1="64" y2="110" gradientUnits="userSpaceOnUse" xlink:href="#linearGradient1910"/><linearGradient id="linearGradient1924" x1="54.782" x2="60.551" y1="64.134" y2="115.209" gradientUnits="userSpaceOnUse" xlink:href="#linearGradient1441"/><mask id="mask1920" maskUnits="userSpaceOnUse"><path id="path1922" d="m 24.111722,63.68582 v 46.25 h 78.351558 l -39.175777,-23.125 z" style="isolation:isolate;fill:url(#linearGradient1924);fill-opacity:1;stroke-width:.20156889"/></mask><linearGradient id="linearGradient1944" x1="102.465" x2="63.288" y1="63.688" y2="86.811" gradientUnits="userSpaceOnUse" xlink:href="#linearGradient1910"/><linearGradient id="linearGradient1963" x1="110.047" x2="82.774" y1="61.27" y2="118.627" gradientUnits="userSpaceOnUse" xlink:href="#linearGradient1441"/><mask id="mask1959" maskUnits="userSpaceOnUse"><path style="isolation:isolate;fill:url(#linearGradient1963);fill-opacity:1;stroke-width:.20156889" id="path1961" d="M 102.4642,63.686707 63.287682,86.811295 102.4642,109.93669 Z"/></mask><linearGradient id="linearGradient1971" x1="67.725" x2="61.935" y1="34.773" y2="110.042" gradientUnits="userSpaceOnUse" xlink:href="#linearGradient963"/><mask id="mask1994" maskUnits="userSpaceOnUse"><path id="path1996" d="m 63.287109,40.5625 -39.175781,23.125 v 46.25 h 78.351562 v -46.25 z" style="isolation:isolate;fill:#f29950;fill-opacity:1;stroke-width:.20156889"/></mask><linearGradient id="linearGradient4236"><stop id="stop2020" offset="0" style="stop-color:#575d5e;stop-opacity:1"/><stop id="stop2022" offset="1" style="stop-color:#292d2e;stop-opacity:1"/></linearGradient><linearGradient id="linearGradient3895"><stop id="stop2025" offset="0" style="stop-color:#fff;stop-opacity:1"/><stop id="stop2027" offset=".03" style="stop-color:#fff;stop-opacity:.23529412"/><stop id="stop2029" offset=".978" style="stop-color:#fff;stop-opacity:.15686275"/><stop id="stop2031" offset="1" style="stop-color:#fff;stop-opacity:.39215687"/></linearGradient><linearGradient id="linearGradient3688-166-749"><stop id="stop2034" offset="0" style="stop-color:#181818;stop-opacity:1"/><stop id="stop2036" offset="1" style="stop-color:#181818;stop-opacity:0"/></linearGradient><linearGradient id="linearGradient3702-501-757"><stop id="stop2044" offset="0" style="stop-color:#181818;stop-opacity:0"/><stop id="stop2046" offset=".5" style="stop-color:#181818;stop-opacity:1"/><stop id="stop2048" offset="1" style="stop-color:#181818;stop-opacity:0"/></linearGradient><linearGradient id="linearGradient3024" x1="24" x2="24" y1="6.032" y2="41.934" gradientTransform="translate(143.99999,124.62501)" gradientUnits="userSpaceOnUse" xlink:href="#linearGradient3895"/><radialGradient id="radialGradient3038" cx="4.993" cy="43.5" r="2.5" fx="4.993" fy="43.5" gradientTransform="matrix(2.003784,0,0,1.4,27.98813,-17.4)" gradientUnits="userSpaceOnUse" xlink:href="#linearGradient3688-166-749"/><radialGradient id="radialGradient3040" cx="4.993" cy="43.5" r="2.5" fx="4.993" fy="43.5" gradientTransform="matrix(2.003784,0,0,1.4,-20.01187,-104.4)" gradientUnits="userSpaceOnUse" xlink:href="#linearGradient3688-166-749"/><linearGradient id="linearGradient3042" x1="25.058" x2="25.058" y1="47.028" y2="39.999" gradientUnits="userSpaceOnUse" xlink:href="#linearGradient3702-501-757"/><linearGradient id="linearGradient4232" x1="25" x2="25" y1="6" y2="44" gradientTransform="translate(143.99999,123.625)" gradientUnits="userSpaceOnUse" xlink:href="#linearGradient4236"/><linearGradient id="linearGradient974" x1="65.522" x2="64.215" y1="34.596" y2="109.938" gradientUnits="userSpaceOnUse" xlink:href="#linearGradient1840"/><mask id="mask970" maskUnits="userSpaceOnUse"><path id="path972" d="m 32.160156,34.595636 v 0.002 24.33802 l -8.046875,4.749997 h -0.002 v 46.249967 0.002 h 78.351559 0.002 V 63.68759 h -0.002 l -8.04882,-4.751966 v -24.33993 z" style="isolation:isolate;fill:none;fill-opacity:1;stroke:url(#linearGradient974);stroke-width:2;stroke-miterlimit:4;stroke-dasharray:none;stroke-opacity:.64739883"/></mask></defs><defs id="defs65"><linearGradient id="_lgradient_6" x1=".5" x2=".5" y1="-.014" y2="1.014"><stop style="stop-color:#fff" id="stop47" offset="0%"/><stop style="stop-color:rgba(255,255,255,.23529412)" id="stop49" offset="6.316%"/><stop style="stop-color:rgba(255,255,255,.15686275)" id="stop51" offset="95.056%"/><stop style="stop-color:rgba(255,255,255,.39215687)" id="stop53" offset="100%"/></linearGradient><linearGradient id="_lgradient_7" x1=".5" x2=".5" y1="-.014" y2="1.014"><stop style="stop-color:#fff" id="stop56" offset="0%"/><stop style="stop-color:rgba(255,255,255,.23529412)" id="stop58" offset="6.316%"/><stop style="stop-color:rgba(255,255,255,.15686275)" id="stop60" offset="95.056%"/><stop style="stop-color:rgba(255,255,255,.39215687)" id="stop62" offset="100%"/></linearGradient></defs><g id="layer1" transform="translate(0,-112)" style="display:none"><rect style="opacity:1;isolation:isolate;fill:#72b91b;fill-opacity:.5606936;fill-rule:evenodd;stroke:none;stroke-width:.25;stroke-linecap:round;stroke-linejoin:round;stroke-miterlimit:4;stroke-dasharray:none;stroke-dashoffset:0;stroke-opacity:.71764706;paint-order:markers fill stroke" id="rect2151" width="16" height="16" x="0" y="112"/></g><g id="layer2" transform="translate(0,-112)"><path style="isolation:isolate;fill:#f29950;fill-opacity:1;stroke-width:.0348133" id="path1276" d="m 7.910856,115 -6.7661148,3.99396 v 7.98792 H 14.676972 v -7.98792 z"/><path style="fill:none;stroke:#000;stroke-width:.17271167px;stroke-linecap:butt;stroke-linejoin:miter;stroke-opacity:1" id="path1793" d="M 14.676972,118.99396 Z"/><path style="fill:none;stroke:#000;stroke-width:.17271167px;stroke-linecap:butt;stroke-linejoin:miter;stroke-opacity:1" id="path1795" d="M 14.677197,118.99382 Z"/><path id="path1810" d="m 1.1447412,118.99396 1.5194586,-0.89692" style="isolation:isolate;fill:none;fill-opacity:1;stroke:#de6d11;stroke-width:.17271167;stroke-linecap:round;stroke-linejoin:round;stroke-miterlimit:4;stroke-dasharray:none;stroke-opacity:.66473993"/><path style="isolation:isolate;fill:none;fill-opacity:1;stroke:#de6d11;stroke-width:.17271167;stroke-linecap:round;stroke-linejoin:round;stroke-miterlimit:4;stroke-dasharray:none;stroke-opacity:.66473993" id="path1753" d="m 14.677024,118.99396 -1.519459,-0.89692"/><g style="opacity:.6;isolation:isolate" id="g2064" transform="matrix(0.40961192,0,0,0.22741432,-1.9197831,116.93653)"><rect style="fill:url(#radialGradient3038);fill-opacity:1;stroke:none" id="rect2058" width="5" height="7" x="38" y="40"/><rect style="fill:url(#radialGradient3040);fill-opacity:1;stroke:none" id="rect2060" width="5" height="7" x="-10" y="-47" transform="scale(-1)"/><rect style="fill:url(#linearGradient3042);fill-opacity:1;stroke:none" id="rect2062" width="28" height="7" x="10" y="40"/></g></g><g id="layer4" transform="translate(0,-112)"><path style="isolation:isolate;fill:url(#linearGradient1462);fill-opacity:1;stroke-width:.0348133" id="path1282" d="m 2.534981,113.96939 h 10.751846 v 11.72082 H 2.534981 v -11.72075 z"/><path style="isolation:isolate;fill:url(#linearGradient1443);fill-opacity:1;stroke-width:.0348133" id="path1290" d="m 1.1448094,118.99367 v 7.98791 H 14.677039 l -6.766115,-3.99395 z"/><path id="path1292" d="m 14.677197,118.99382 -6.766242,3.99389 6.766242,3.99403 z" style="isolation:isolate;fill:url(#linearGradient1862);fill-opacity:1;stroke-width:.0348133"/><path style="isolation:isolate;fill:none;fill-opacity:1;stroke:#578427;stroke-width:.17271167;stroke-linecap:round;stroke-linejoin:round;stroke-miterlimit:4;stroke-dasharray:none;stroke-opacity:.64739883" id="path1766" d="m 13.286827,119.81402 v -5.84463 H 2.534981 v 5.84488"/><path style="isolation:isolate;fill:none;stroke:#bc8d12;stroke-width:.17271167px;stroke-linecap:round;stroke-linejoin:miter;stroke-opacity:.71676301" id="path1797" d="m 14.677197,118.99382 -1.24e-4,7.98776 c 0,0 -13.5322279,0 -13.5322279,0 l -8.67e-5,-7.98762"/><path style="isolation:isolate;fill:none;fill-opacity:1;stroke:url(#linearGradient1890);stroke-width:2;stroke-linecap:round;stroke-linejoin:round;stroke-miterlimit:4;stroke-dasharray:none" id="path1882" d="M 102.46328,109.93582 63.287503,86.81082 24.111722,63.68582" mask="url(#mask1920)" transform="matrix(0.17271167,0,0,0.17271167,-3.0195668,107.99438)"/><path id="path1936" d="M 102.4642,63.686707 63.287682,86.811295" mask="url(#mask1959)" transform="matrix(0.17271167,0,0,0.17271167,-3.0195668,107.99438)" style="isolation:isolate;fill:none;stroke:url(#linearGradient1944);stroke-width:2;stroke-linecap:round;stroke-linejoin:round;stroke-miterlimit:4;stroke-dasharray:none;stroke-opacity:.71764706"/><path style="isolation:isolate;fill:#fefaf7;fill-opacity:1;stroke:url(#linearGradient1971);stroke-width:.19685989;stroke-miterlimit:4;stroke-dasharray:none;stroke-linecap:round;stroke-linejoin:round" id="path1821" d="m 24.111328,63.685547 v 46.250003 0.002 h 78.351562 m 0.002,0 v -46.25 h -0.002 L 94.414062,58.935597 V 34.593704 H 32.160156 v 0.002 24.33994 l -8.046875,4.75" mask="url(#mask970)" transform="matrix(0.17271167,0,0,0.17271167,-3.019691,107.99438)"/></g><g id="layer3" transform="translate(0,-112)"><path style="fill:none;stroke:#bc8d12;stroke-width:.17271167px;stroke-linecap:round;stroke-linejoin:round;stroke-opacity:.71764706" id="path1817" d="M 14.677039,126.98158 1.1448094,118.99367"/><path style="fill:none;stroke:#bc8d12;stroke-width:.17271167px;stroke-linecap:round;stroke-linejoin:round;stroke-opacity:.71764706" id="path1819" d="m 14.677197,118.99382 -6.766242,3.99389"/><path style="opacity:1;isolation:isolate;fill:url(#linearGradient1878);fill-opacity:1;fill-rule:evenodd;stroke:none;stroke-width:.12404137;stroke-linecap:round;stroke-linejoin:round;stroke-miterlimit:4;stroke-dasharray:none;stroke-dashoffset:0;stroke-opacity:1;paint-order:markers fill stroke" id="rect1537" d="m 7.6140635,115.22441 v 0.55129 c -0.4422515,0.0622 -0.766248,0.23277 -0.9719805,0.51179 -0.205733,0.27962 -0.309255,0.59439 -0.309255,0.94363 0,0.26608 0.057916,0.50008 0.1731005,0.70089 0.1151855,0.20019 0.265475,0.3561 0.450256,0.46697 0.184781,0.11206 0.4416395,0.22415 0.7699285,0.33808 0.365245,0.12933 0.60124,0.23592 0.7071805,0.32028 0.1059215,0.0838 0.1588075,0.20758 0.1588075,0.37079 0,0.15768 -0.052866,0.292 -0.1588075,0.4035 -0.1059405,0.1115 -0.272322,0.16692 -0.4971335,0.16692 -0.4810415,0 -0.7643785,-0.26001 -0.8499985,-0.78046 l -0.9238895,0.24093 c 0.1866135,0.82782 0.670174,1.28234 1.451792,1.3624 v 0.7102 h 0.5974335 v -0.71384 c 0.468742,-0.0493 0.8272015,-0.21315 1.0754285,-0.49156 0.248228,-0.2778 0.372609,-0.62517 0.372609,-1.04212 0,-0.27162 -0.060256,-0.50876 -0.180369,-0.71203 -0.1207235,-0.20264 -0.28154,-0.3622 -0.4835675,-0.47739 -0.201416,-0.11518 -0.479835,-0.2378 -0.834614,-0.36715 -0.3227505,-0.11887 -0.5340185,-0.21803 -0.6319565,-0.29811 -0.098549,-0.0807 -0.1477835,-0.1958 -0.1477835,-0.34609 0,-0.14721 0.0511,-0.27288 0.1533555,-0.37635 0.1016245,-0.10349 0.237144,-0.15518 0.4059205,-0.15518 0.3362715,0 0.5838565,0.23152 0.744611,0.6947 l 0.8229855,-0.33748 c -0.196469,-0.67567 -0.628945,-1.05325 -1.29662,-1.13333 v -0.55128 z"/><path style="opacity:1;isolation:isolate;fill:#1e6600;fill-opacity:1;fill-rule:evenodd;stroke:none;stroke-width:.12404137;stroke-linecap:round;stroke-linejoin:round;stroke-miterlimit:4;stroke-dasharray:none;stroke-dashoffset:0;stroke-opacity:1;paint-order:markers fill stroke" id="path1866" d="m 7.614008,115.22426 v 0.1727 h 0.597407 v -0.1727 z m 0,0.55153 c -0.442252,0.0622 -0.766108,0.2327 -0.9718405,0.51172 -0.2057335,0.27963 -0.309329,0.59427 -0.309329,0.94351 0,0.0235 0.0028,0.0455 0.0037,0.0685 0.018765,-0.30777 0.1206325,-0.58785 0.305618,-0.83928 0.2057325,-0.27901 0.5295885,-0.44952 0.9718405,-0.51172 z m 0.597407,0 v 0.17271 c 0.615066,0.0738 1.0281435,0.40313 1.243389,0.9823 l 0.053298,-0.022 c -0.1964695,-0.67568 -0.6290125,-1.053 -1.296687,-1.13309 z m -0.8227415,1.39552 c -0.00405,0.0276 -0.00743,0.0553 -0.00743,0.0847 0,0.15028 0.0492,0.26541 0.1477495,0.3461 0.097939,0.0801 0.309064,0.17933 0.6318145,0.29819 0.3547795,0.12936 0.633469,0.25183 0.834885,0.36702 0.2020275,0.11518 0.3626675,0.27468 0.4833905,0.47732 0.109794,0.1858 0.1669615,0.40142 0.1764225,0.64429 0.00185,-0.0347 0.00405,-0.0692 0.00405,-0.10491 0,-0.27162 -0.060357,-0.50849 -0.1804695,-0.71176 -0.1207235,-0.20264 -0.2813635,-0.36247 -0.483391,-0.47765 -0.2014155,-0.11519 -0.480106,-0.23766 -0.8348855,-0.36702 -0.32275,-0.11887 -0.533876,-0.21811 -0.631814,-0.29819 -0.078138,-0.064 -0.124155,-0.15043 -0.1403285,-0.25806 z m -0.302583,2.0469 -0.92394,0.24086 c 0.012575,0.0558 0.02656,0.10953 0.04183,0.16191 l 0.8821115,-0.23039 c 0.08562,0.52046 0.369024,0.78057 0.850065,0.78057 0.224812,0 0.3912805,-0.0555 0.497221,-0.16697 0.105941,-0.1115 0.158881,-0.24577 0.158881,-0.40345 0,-0.0307 -0.004,-0.0587 -0.00776,-0.0867 -0.01619,0.1208 -0.065165,0.22696 -0.1511225,0.31743 -0.1059405,0.1115 -0.272409,0.16697 -0.4972205,0.16697 -0.481041,0 -0.764445,-0.25977 -0.8500655,-0.78024 z"/></g></svg>